<svg width="237" height="234" xmlns="http://www.w3.org/2000/svg" xmlns:xlink="http://www.w3.org/1999/xlink" overflow="hidden"><defs><clipPath id="clip0"><rect x="221" y="335" width="237" height="234"/></clipPath><clipPath id="clip1"><rect x="221" y="336" width="236" height="233"/></clipPath><clipPath id="clip2"><rect x="221" y="336" width="236" height="233"/></clipPath><clipPath id="clip3"><rect x="221" y="336" width="811" height="233"/></clipPath></defs><g clip-path="url(#clip0)" transform="translate(-221 -335)"><g clip-path="url(#clip1)"><g clip-path="url(#clip2)"><g clip-path="url(#clip3)"><path d="M771.899 35.0639 771.899 35.1344C773.261 36.7079 773.473 38.3754 771.899 41.0997L771.899 35.0639 771.899 35.0639ZM771.899 57.563C774.53 58.2441 778.546 58.385 779.156 58.6904 780.213 59.2775 781.199 57.3987 779.767 56.2713 779.25 55.8251 777.818 54.463 776.221 53.4766 774.717 52.4902 773.12 51.5977 771.923 50.6818L771.923 46.9711C773.285 46.5248 775.258 46.3604 777.512 46.2195 780.471 46.0082 784.229 43.1194 786.812 43.9649 789.302 44.7165 791.204 44.4816 794.821 52.9599 795.361 54.463 793.764 56.8115 792.332 59.0661 790.147 62.4715 789.56 65.783 787.282 69.4232 785.709 71.9832 781.176 79.5455 783.571 79.0053 792.12 77.197 794.821 77.5727 799.589 81.8001 802.618 84.5245 805.648 86.2624 805.859 89.4329L805.859 90.2549C805.859 90.8655 805.695 91.4527 805.483 92.1338 800.575 100.518 789.466 94.177 779.884 98.0991 778.287 99.9075 778.827 103.078 774.976 104.276 773.989 104.581 772.932 105.027 771.946 105.567L771.946 91.2178C775.281 90.9125 778.146 90.6777 779.861 90.5367 781.669 90.3958 782.656 88.3526 781.223 87.5071 780.753 87.2018 776.995 87.2957 771.923 87.6715L771.923 65.9239C773.802 66.0648 775.093 66.1588 775.61 65.4072 776.221 64.7261 776.221 63.2935 775.469 62.6829 774.483 62.3071 773.12 62.0723 771.923 62.0018L771.923 57.5396 771.923 57.5396ZM771.899 115.103C774.389 114.797 777.183 114.351 779.743 114.046 783.29 113.6 785.497 111.627 786.93 112.684 791.016 115.784 791.674 116.23 793.717 122.054 795.526 127.198 788.057 129.006 784.135 128.114 778.24 126.681 776.667 125.836 771.899 126.305L771.899 115.126ZM768.282 31.1888C769.785 32.41 771.077 33.9836 771.899 35.0404L771.899 41.0762C771.148 42.4384 770.02 44.0119 768.282 45.9142L768.282 31.1888 768.282 31.1888ZM768.282 51.6447C769.339 52.3962 770.232 53.3122 769.715 55.7312 769.48 56.5532 770.537 57.1638 771.899 57.5396L771.899 62.0018C770.678 61.8609 769.48 61.8609 768.87 61.9314 768.635 62.0018 768.423 62.0958 768.282 62.1662L768.282 51.6682 768.282 51.6682ZM771.899 50.6583C771.054 49.9772 770.466 49.3666 770.302 48.756 770.161 47.934 770.748 47.3234 771.899 46.9476L771.899 50.6583 771.899 50.6583ZM771.899 105.544C770.607 106.225 769.41 107.071 768.282 107.893L768.282 91.4996C769.574 91.3353 770.772 91.2648 771.899 91.1943L771.899 105.544 771.899 105.544ZM768.282 115.361C769.41 115.361 770.631 115.22 771.899 115.056L771.899 126.235C771.054 126.376 770.091 126.54 768.94 126.681 768.705 126.751 768.47 126.822 768.259 127.057L768.259 115.361 768.259 115.361ZM771.899 87.648C770.772 87.7185 769.551 87.8124 768.282 87.8594L768.282 77.972C768.729 77.972 769.034 77.9015 769.245 77.6667 769.856 77.056 770.983 76.4689 769.997 75.4825 769.598 75.0363 769.245 74.8719 768.259 74.9658L768.259 65.2193C768.635 65.689 769.903 66.0648 771.195 65.9004L771.876 65.9004 771.876 87.648ZM756.939 42.18C757.385 41.9452 757.831 41.6399 758.207 41.2876 761.072 38.3519 757.972 29.8971 763.797 29.2865 765.37 29.216 766.967 30.038 768.259 31.1653L768.259 45.8907C767.954 46.2665 767.578 46.6423 767.273 47.0885 766.967 47.3234 766.591 47.5582 766.357 49.3666 766.521 50.5644 767.413 51.0341 768.259 51.6212L768.259 62.1192C767.413 62.6594 767.883 64.0216 768.165 65.0549 768.165 65.0549 768.259 65.1254 768.259 65.1958L768.259 74.9423 767.954 74.9423C766.357 75.2477 766.662 75.6939 766.216 77.197 766.286 77.5727 767.413 77.9485 768.259 77.9485L768.259 87.8359C766.826 88.0003 765.229 88.0708 763.726 88.2117 761.472 88.3526 759.193 88.517 756.939 88.7284L756.939 81.5418C757.69 81.7766 758.747 81.7062 759.193 81.2365 760.485 79.8743 760.556 79.4985 759.053 78.8879 758.982 79.0288 758.442 77.972 757.62 78.8879 757.315 79.2637 757.103 79.4985 756.939 79.6395L756.939 64.9845C757.69 64.5383 758.442 63.8572 758.512 63.317 758.747 61.5086 758.818 60.7571 757.315 61.1329 757.315 61.2033 757.174 61.2738 756.939 61.3442L756.939 42.0861 756.939 42.0861ZM768.259 107.893C765.699 110.006 763.797 112.355 763.726 113.787 763.656 115.22 765.535 115.525 768.259 115.361L768.259 127.057C766.286 129.1 768.259 139.152 766.427 143.755 764.994 147.231 763.022 151.458 761.143 154.323 759.851 156.202 758.418 157.87 756.915 159.161L756.915 93.1671 758.959 92.7914C761.988 92.2512 765.229 91.805 768.259 91.4996L768.259 107.893ZM744.304 39.1034C746.558 38.4928 749.071 38.7276 750.269 39.7845 752.242 41.5224 754.731 43.096 756.915 42.2035L756.915 61.4617C756.68 61.5321 756.305 61.6965 756.093 62.2836 755.342 63.7867 755.036 64.092 755.483 65.6186 755.694 65.7595 756.305 65.5481 756.915 65.0784L756.915 79.7334C756.711 79.984 756.509 80.4614 756.305 81.166 756.305 81.4009 756.61 81.5418 756.915 81.6122L756.915 88.7988C754.261 89.1041 751.702 89.4094 749.283 89.9261 748.296 90.161 746.253 90.3019 744.609 91.3587 744.538 91.3587 744.374 91.4292 744.304 91.5231L744.304 80.2031C746.182 79.1463 748.085 77.4788 748.296 76.281 748.813 71.5839 748.742 69.1884 744.891 70.1513 744.891 70.3157 744.656 70.3862 744.28 70.4566L744.28 61.3207C746.159 60.2639 748.578 57.6805 748.954 55.4259 749.4 50.8932 747.897 47.7226 744.28 48.4741L744.28 39.1034 744.28 39.1034ZM756.915 159.185C753.369 162.215 749.752 163.178 747.709 161.604 746.934 160.993 745.877 159.725 744.304 157.964L744.304 144.46C747.404 144.225 749.964 143.849 750.574 142.722 752.688 139.105 752.524 135.535 752.077 131.237 752.148 129.593 749.823 130.556 746.112 130.11 745.501 130.039 744.961 130.039 744.304 130.039L744.304 119.471C745.595 119.4 746.723 119.26 747.333 118.555 749.001 116.676 745.595 114.703 745.901 112.965 746.276 110.03 753.674 109.184 754.449 107.235 755.201 104.98 756.493 106.178 756.774 103.524 757.009 101.035 751.279 103.665 748.93 104.346 747.192 104.863 745.76 105.098 744.327 105.474L744.327 95.5861C747.873 94.7641 752.171 93.9187 756.939 93.1671L756.939 159.161ZM717.953 89.8557C719.62 88.4935 719.174 68.7891 718.258 62.7534 717.131 59.7237 716.826 55.5668 717.272 53.3826 717.882 50.2825 719.55 49.531 721.499 50.5174 723.683 51.6447 726.102 54.9796 728.686 60.2639 730.424 63.8807 728.545 63.364 728.545 64.7261 728.404 71.443 727.793 78.2538 727.699 82.7865 727.699 85.5108 731.41 85.7927 732.021 84.1487 732.631 73.1105 731.269 58.4085 732.256 51.903 732.396 47.7461 730.588 42.4618 732.326 41.1936 734.299 39.6906 738.808 40.583 740.851 41.6399 742.448 42.4618 742.354 39.7375 743.576 39.3618 743.81 39.2208 744.116 39.1269 744.327 39.1269L744.327 48.4976C744.327 48.4976 744.163 48.5681 744.022 48.5681 743.411 49.0848 743.576 49.8598 743.576 50.306 743.129 54.463 742.448 57.7979 742.519 61.626 742.801 61.9314 743.576 61.7904 744.327 61.3207L744.327 70.4566C743.482 70.6915 742.143 71.1377 741.979 73.3218 741.673 77.4788 739.184 77.4083 740.476 81.26 740.992 81.7062 742.66 81.1895 744.327 80.2031L744.327 91.5231C743.2 92.4156 742.284 94.0831 740.781 94.3179 738.197 94.6937 736.107 94.5528 734.721 94.7876 732.843 95.0225 731.856 95.4687 729.672 95.774 727.699 96.0793 723.167 96.8309 720.231 99.3908 717.436 101.81 717.06 108.832 715.557 111.791 714.266 114.281 712.903 116.77 711.87 118.884 710.438 121.514 709.216 123.651 706.421 124.309 702.57 125.225 699.47 120.457 699.094 117.451L699.094 116.324C700.221 111.956 701.208 108.386 701.583 104.393 701.795 101.669 700.832 99.109 701.137 96.9248 701.443 94.8111 702.875 93.8952 703.838 92.8383 704.989 91.4762 706.116 89.9026 708.136 90.2784 709.803 90.5837 710.79 91.8519 712.457 92.0163 714.947 92.3216 716.238 91.3353 717.976 89.9026L717.976 89.9026ZM744.304 157.964C743.106 156.602 741.65 155.028 739.841 153.361 737.07 150.871 732.302 149.063 729.813 146.714 728.216 144.084 737.587 144.812 744.304 144.46L744.304 157.964 744.304 157.964ZM744.304 130.016 744.304 119.447C743.176 119.518 741.885 119.518 740.898 119.588 734.487 120.41 726.314 119.588 720.207 121.185 713.866 122.923 715.229 125.577 718.258 128.348 719.761 129.781 720.207 130.838 724.294 132.881 728.31 134.854 737.892 130.251 744.304 130.016L744.304 130.016ZM744.304 105.474 744.304 95.5861C741.133 96.3377 738.479 97.0892 736.671 98.0051 734.933 98.8271 730.024 101.716 728.286 102.679 724.13 105.098 725.045 106.906 726.854 108.48 731.152 112.096 737.281 110.288 738.409 109.09 740.593 106.765 742.425 105.99 744.304 105.474Z" fill="#00561F" fill-rule="evenodd" transform="matrix(1.00129 0 0 1 222.375 336)"/><path d="M571.615 74.7075C577.368 74.8719 581.056 74.2613 580.985 73.2044 581.22 68.4369 581.291 60.3578 579.858 54.1811 579.106 51.0106 581.455 49.0378 583.169 48.0044 587.467 45.515 588.618 44.3877 590.967 44.6695 595.194 45.2801 598.294 47.9105 601.23 51.7621 602.662 53.8054 603.79 50.9401 602.122 61.2033 601.23 66.4876 602.052 66.8633 602.803 67.6383 605.152 68.6247 607.641 67.8497 611.258 66.7224 615.72 65.5246 617.223 58.6434 625.984 69.071 627.205 70.2687 628.097 72.0067 626.5 74.1908 624.621 76.7507 620.089 78.2068 615.016 81.0721 608.369 84.7593 597.566 85.4639 599.093 90.2079 603.625 101.528 615.932 117.85 632.16 129.17 636.317 132.036 641.367 134.455 647.12 136.052 655.434 138.306 662.363 140.044 658.3 142.158 652.029 145.399 628.708 149.18 622.132 145.634 615.415 142.017 595.1 109.842 591.554 103.501 591.413 103.195 590.802 103.195 590.497 104.041 586.716 112.355 578.707 127.902 570.558 134.314 567.011 137.179 561.727 135.676 560.06 134.478 558.251 133.046 546.391 130.462 544.512 126.775 543.455 124.426 545.052 124.285 546.344 124.051 561.985 123.44 564.099 118.907 567.716 116.042 577.298 108.644 578.731 95.868 577.462 95.3513 563.183 96.7134 558.204 98.4514 553.742 93.2376 544.911 75.4825 552.075 72.4764 560.388 73.5332 564.545 74.1438 570.135 74.6605 571.638 74.731Z" fill="#00561F" fill-rule="evenodd" transform="matrix(1.00129 0 0 1 222.375 336)"/><path d="M427.977 91.6171C429.715 92.1572 431.147 93.1202 432.651 96.0089 436.878 102.796 435.14 111.345 436.361 116.7 437.418 117.381 440.213 116.77 443.313 116.324 447.47 115.643 452.003 114.821 451.838 113.693 451.251 107.963 452.144 70.6445 451.298 65.5246 451.157 64.9845 450.852 63.3405 450.711 62.8003 448.809 54.1811 456.958 51.6917 459.401 51.9265 463.628 52.3727 472.012 60.3109 470.791 63.9276 468.536 67.7088 468.302 78.3477 468.231 88.5405 468.161 97.1362 467.996 105.614 468.466 108.785 468.466 111.415 479.269 108.104 482.886 106.671 487.419 105.826 486.432 91.5701 490.284 88.9162 492.186 87.6245 502.896 89.4329 504.563 98.4279 504.775 103.336 503.342 109.677 502.144 115.807 501.322 120.105 500.641 125.248 500.477 127.198 500.336 129.241 492.022 137.766 489.227 139.739 484.835 140.796 483.497 130.533 483.497 124.943 483.497 121.913 483.567 120.951 482.745 120.246 480.185 120.035 473.445 121.162 469.593 123.276 467.48 124.403 466.728 127.433 463.933 127.949 452.754 127.503 441.364 129.758 439.626 131.496 438.639 132.482 433.355 137.015 432.439 138.283 431.547 139.504 427.601 138.212 426.403 138.659 423.538 139.575 421.871 134.502 418.63 130.274 415.224 125.976 417.573 123.393 419.616 118.649 421.8 113.365 422.552 104.064 422.035 97.7233 422.035 94.4823 421.871 90.7716 428 91.5936Z" fill="#00561F" fill-rule="evenodd" transform="matrix(1.00129 0 0 1 222.375 336)"/><path d="M344.533 48.4272C346.435 48.4976 348.619 48.4976 350.803 48.3567 354.726 47.887 359.634 44.5755 363.18 44.5051 368.324 44.5051 375.346 51.7621 377.06 56.3653 378.117 60.3578 375.628 63.5284 372.833 65.0549L370.414 65.736C367.69 67.1686 362.781 73.6037 363.016 74.8719 362.852 76.7507 362.852 78.0424 364.824 79.4751 366.046 81.213 363.086 88.6109 359.47 90.0435 358.413 90.6542 357.426 91.2413 354.702 91.3118 351.297 91.1709 347.915 91.9928 344.509 93.4255L344.509 73.6506C346.106 72.5233 347.304 71.1612 347.75 70.1748 349.723 67.5444 352.142 63.0822 350.639 59.6767 349.206 58.6199 346.787 58.479 344.509 58.7608L344.509 48.4037ZM311.089 58.1032C314.33 56.2948 316.609 55.144 320.225 53.8758 320.084 48.5211 319.403 42.8376 319.544 37.7178 319.615 36.6609 319.239 35.6745 318.863 34.923 316.679 30.4607 321.658 24.6598 328.821 22.9923 330.794 22.6166 339.624 26.844 339.695 30.8365 339.554 36.567 338.943 42.9785 339.389 48.0514 340.752 48.1923 342.49 48.3567 344.533 48.4272L344.533 58.7843C342.419 59.0896 340.446 59.7707 339.249 60.2874 338.027 62.3306 337.276 74.7779 338.873 75.6234 340.681 75.9287 342.795 74.9423 344.533 73.6506L344.533 93.4255C342.043 94.4823 339.554 95.8445 337.205 97.3475 336.9 115.314 335.467 132.153 334.857 149.979 333.659 159.349 330.418 168.016 325.58 168.697 322.175 168.321 318.863 160.829 318.699 148.922L317.947 99.9779C315.974 100.283 313.72 101.035 311.066 102.092L311.066 85.2525C313.109 85.2525 314.236 84.7123 316.726 83.2797 318.323 82.2933 317.783 71.49 317.266 69.5407 316.515 68.4134 315.058 70.0808 314.612 70.3627 313.414 71.0437 312.264 71.5604 311.066 71.8657L311.066 58.0562ZM299.088 63.8337C301.132 64.5148 302.705 63.0117 305.289 61.5791 307.614 60.1465 309.516 59.0896 311.089 58.1032L311.089 71.9127C308.976 72.5233 306.932 72.5233 305.124 71.9832 303.245 71.1612 305.289 84.3835 307.473 84.9707 309.046 85.1116 310.197 85.276 311.089 85.276L311.089 102.115C309.281 102.796 307.238 103.712 304.983 104.605 303.926 105.521 302.94 106.413 301.954 107.564 300.897 108.762 300.216 110.664 298.924 110.946 295.965 111.697 292.724 111.251 290.164 109.443 288.121 107.775 288.05 103.618 285.114 99.1794 282.789 96.2437 280.441 94.0361 280.441 89.9731 281.944 86.1919 282.484 84.2426 283.752 81.9645 284.058 80.8372 284.269 79.7804 284.433 78.0424 284.809 73.7446 285.42 70.1043 287.064 65.9474 288.285 63.6928 294.321 59.8411 299.065 63.8337Z" fill="#00561F" fill-rule="evenodd" transform="matrix(1.00129 0 0 1 222.375 336)"/><path d="M806.869 183.845 806.869 184.831C806.118 184.902 805.577 185.066 805.202 185.277 804.896 185.512 804.591 185.794 804.286 186.264L797.193 197.748 797.193 204.629C797.193 206.062 797.498 206.978 797.945 207.354 798.32 207.659 799.236 207.87 800.645 208.035L800.645 208.927 787.752 208.927 787.752 208.035C789.185 207.87 790.1 207.659 790.476 207.424 791.016 206.955 791.228 206.062 791.228 204.629L791.228 199.204 784.44 186.898C784.206 186.452 784.065 186.217 783.994 186.076 783.313 185.254 782.491 184.878 781.505 184.878L781.505 183.892 793.882 183.892 793.882 184.878C792.59 184.878 791.768 184.949 791.463 185.113 791.087 185.254 790.946 185.559 790.946 186.099 790.946 186.334 791.016 186.687 791.251 187.156 791.557 187.673 791.697 187.978 791.768 188.213L796.207 196.809 800.364 189.928C800.669 189.481 800.904 188.941 801.209 188.424 801.585 187.532 801.82 186.921 801.82 186.475 801.82 185.865 801.514 185.418 800.998 185.183 800.458 184.949 799.706 184.878 798.72 184.878L798.72 183.892 806.869 183.892ZM700.621 200.919 700.621 195.869C701.372 195.705 701.983 195.494 702.358 195.188 703.415 194.366 704.026 192.84 704.026 190.515 704.026 188.636 703.627 187.274 702.875 186.428 702.358 185.818 701.607 185.371 700.621 185.207L700.621 183.845C703.627 183.915 705.975 184.526 707.643 185.583 709.451 186.71 710.297 188.307 710.297 190.421 710.297 192.394 709.615 193.897 708.183 195.024 707.431 195.635 706.163 196.222 704.496 196.762L711.964 207.33C712.199 207.636 712.41 207.777 712.645 207.847 712.95 207.917 713.185 208.011 713.491 208.011L713.491 208.904 705.952 208.904 700.667 200.895 700.667 200.895ZM773.332 208.035 773.332 208.927 760.109 208.927 760.109 208.035C761.542 208.035 762.528 207.87 762.904 207.495 763.444 207.119 763.75 206.133 763.75 204.629L763.75 185.066C761.871 185.066 760.438 185.371 759.452 185.982 757.855 186.968 756.892 188.706 756.587 191.337L755.53 191.337 755.6 183.868 777.864 183.868 777.935 191.337 776.808 191.337C776.502 188.777 775.586 186.968 774.013 185.982 772.956 185.371 771.523 185.066 769.715 185.066L769.715 204.629C769.715 206.133 770.02 207.119 770.466 207.495 770.913 207.87 771.899 208.035 773.332 208.035L773.332 208.035ZM751.725 208.035 751.725 208.927 738.808 208.927 738.808 208.035C740.335 207.87 741.297 207.659 741.673 207.283 742.049 206.908 742.213 206.297 742.213 205.404L742.213 187.438C742.213 186.381 741.908 185.606 741.157 185.23 740.616 184.925 739.865 184.855 738.808 184.855L738.808 183.868 751.725 183.868 751.725 184.855C750.668 184.855 749.846 184.925 749.376 185.23 748.625 185.536 748.249 186.287 748.249 187.438L748.249 205.404C748.249 206.461 748.555 207.213 749.236 207.589 749.776 207.894 750.598 208.035 751.725 208.035L751.725 208.035ZM733.524 191.337 732.467 191.337C732.021 189.669 731.269 188.166 730.283 186.968 728.85 185.301 727.183 184.479 725.233 184.479 724.177 184.479 723.284 184.784 722.439 185.371 721.687 185.982 721.217 186.804 721.217 187.955 721.217 189.012 721.523 189.763 721.969 190.374 722.486 190.914 723.542 191.572 725.069 192.347L730.494 195.071C731.481 195.611 732.302 196.269 732.984 197.185 734.04 198.617 734.557 200.214 734.557 201.952 734.557 203.901 733.876 205.569 732.514 207.002 730.846 208.81 728.427 209.726 725.351 209.726 724.223 209.726 723.096 209.561 722.11 209.28 721.123 209.045 720.067 208.739 719.01 208.458 718.704 208.458 718.493 208.528 718.329 208.833 718.188 209.068 718.023 209.374 717.953 209.749L716.826 209.749 716.826 200.543 717.953 200.543C718.399 202.798 719.174 204.629 720.207 205.968 721.57 207.636 723.378 208.458 725.492 208.458 727.018 208.458 728.146 208.082 728.968 207.33 729.719 206.579 730.189 205.522 730.189 204.301 730.189 203.244 729.813 202.328 728.968 201.576 728.521 201.13 727.464 200.52 726.032 199.768L723.542 198.641C720.748 197.279 718.939 195.846 718.023 194.178 717.413 193.192 717.201 191.994 717.201 190.632 717.201 188.284 718.023 186.475 719.691 185.113 721.123 183.915 723.002 183.375 725.351 183.375 726.549 183.375 727.77 183.516 729.062 183.986 730.353 184.361 731.011 184.596 731.175 184.596 731.621 184.596 731.927 184.361 732.162 183.986 732.232 183.821 732.302 183.61 732.396 183.375L733.524 183.375 733.524 191.36ZM700.597 183.868 700.597 185.23C700.221 185.16 699.845 185.16 699.47 185.16 698.483 185.16 697.873 185.23 697.661 185.465 697.426 185.606 697.286 186.076 697.215 186.757L697.215 196.198C698.577 196.198 699.705 196.128 700.621 195.893L700.621 200.942 698.202 197.396 697.215 197.396 697.215 204.629C697.215 205.992 697.45 206.884 697.896 207.26 698.272 207.565 699.094 207.87 700.456 208.011L700.456 208.904 687.915 208.904 687.915 208.011C689.277 207.847 690.169 207.636 690.475 207.33 690.921 206.955 691.156 206.039 691.156 204.606L691.156 188.213C691.156 186.71 690.921 185.724 690.31 185.324 689.935 184.949 689.089 184.808 687.891 184.808L687.891 183.821 700.597 183.821ZM429.175 208.927 429.175 208.035 429.245 208.035 429.245 208.927 429.175 208.927ZM429.175 191.337 430.138 191.337C430.443 188.706 431.429 186.968 433.003 185.982 433.989 185.371 435.422 185.066 437.23 185.066L437.23 204.629C437.23 206.133 436.995 207.119 436.479 207.495 436.103 207.87 435.117 208.035 433.684 208.035L433.684 208.927 446.883 208.927 446.883 208.035C445.45 208.035 444.464 207.87 444.018 207.495 443.501 207.119 443.266 206.133 443.266 204.629L443.266 185.066C445.074 185.066 446.507 185.371 447.564 185.982 449.067 186.968 450.053 188.777 450.359 191.337L451.486 191.337 451.416 183.868 429.128 183.868 429.128 191.337 429.128 191.337ZM662.433 184.855 662.433 183.868 683.805 183.868 683.805 191.337 682.912 191.337C682.443 188.847 681.621 187.18 680.188 186.287 679.061 185.536 677.088 185.16 674.364 185.16 673.307 185.16 672.555 185.23 672.18 185.465 671.874 185.7 671.639 186.146 671.639 186.898L671.639 195.517C673.612 195.517 674.951 195.141 675.796 194.46 676.783 193.615 677.393 192.206 677.675 189.998L678.662 189.998 678.662 202.539 677.675 202.539C677.44 200.285 676.83 198.758 675.937 198.007 675.021 197.185 673.589 196.785 671.639 196.785L671.639 205.78C671.639 206.532 671.874 207.142 672.32 207.354 672.767 207.659 673.612 207.8 674.81 207.8 676.994 207.8 678.732 207.424 680.165 206.673 681.973 205.616 683.406 203.878 684.533 201.248L685.519 201.248 684.087 208.951 662.41 208.951 662.41 208.058C663.607 207.894 664.453 207.753 664.758 207.518 665.345 207.213 665.651 206.461 665.651 205.404L665.651 187.438C665.651 186.381 665.345 185.606 664.664 185.23 664.218 184.925 663.466 184.855 662.41 184.855L662.41 184.855ZM659.192 183.868 659.192 184.855C658.206 184.925 657.525 185.23 657.078 185.606 656.703 185.982 656.327 186.734 655.881 187.861L647.426 209.608 646.369 209.608 636.928 187.415C636.458 186.358 636.012 185.677 635.73 185.442 635.354 185.136 634.744 184.996 633.757 184.831L633.757 183.845 646.205 183.845 646.205 184.831C644.936 184.831 644.091 184.902 643.715 185.066 643.269 185.207 643.034 185.677 643.034 186.358 643.034 186.663 643.175 187.18 643.48 187.931 643.786 188.753 643.997 189.293 644.161 189.599L648.999 201.295 653.767 189.059C653.978 188.518 654.143 188.072 654.284 187.626 654.424 187.18 654.424 186.804 654.424 186.499 654.424 185.348 653.368 184.831 651.254 184.831L651.254 183.845 659.192 183.845ZM631.409 208.035 631.409 208.927 618.421 208.927 618.421 208.035C619.924 207.87 620.911 207.659 621.286 207.283 621.662 206.908 621.803 206.297 621.803 205.404L621.803 187.438C621.803 186.381 621.498 185.606 620.746 185.23 620.276 184.925 619.455 184.855 618.398 184.855L618.398 183.868 631.385 183.868 631.385 184.855C630.258 184.855 629.412 184.925 628.966 185.23 628.215 185.536 627.839 186.287 627.839 187.438L627.839 205.404C627.839 206.461 628.121 207.213 628.825 207.589 629.365 207.894 630.187 208.035 631.385 208.035L631.385 208.035ZM590.027 208.927 590.027 208.035C591.248 207.87 592.07 207.659 592.446 207.424 592.963 206.955 593.268 206.203 593.268 205.076L593.268 187.485C592.282 186.264 591.601 185.512 591.084 185.207 590.779 184.902 590.403 184.831 590.121 184.831L590.121 183.845 597.965 183.845 610.812 199.698 610.882 188.448C610.882 187.227 610.647 186.334 610.272 185.794 609.825 185.113 608.839 184.808 607.406 184.808L607.406 183.821 615.415 183.821 615.415 184.808C614.123 184.949 613.372 185.183 612.996 185.63 612.691 186.005 612.55 186.757 612.55 187.743L612.55 209.561 611.493 209.561 594.959 189.481 594.889 204.301C594.889 205.663 595.123 206.555 595.64 207.095 596.086 207.542 597.002 207.847 598.435 208.011L598.435 208.904 590.051 208.904ZM587.162 183.868 587.162 184.855C586.035 184.996 585.283 185.23 584.954 185.536 584.508 185.982 584.203 186.827 584.203 187.955L584.203 199.815C584.203 201.107 584.062 202.375 583.827 203.596 583.451 205.099 582.841 206.25 582.183 207.002 581.337 207.917 580.14 208.669 578.707 209.115 577.509 209.491 576.218 209.726 574.855 209.726 573.634 209.726 572.507 209.561 571.45 209.35 569.783 208.974 568.444 208.293 567.364 207.377 566.377 206.532 565.767 205.71 565.485 204.958 565.015 203.972 564.804 202.539 564.804 200.66L564.804 188.284C564.804 186.851 564.498 185.935 564.052 185.489 563.747 185.183 562.925 184.972 561.704 184.878L561.704 183.892 574.245 183.892 574.245 184.878C572.883 184.878 571.99 185.019 571.591 185.324 570.98 185.771 570.675 186.757 570.675 188.26L570.675 200.637C570.675 203.197 571.145 205.005 571.967 206.156 572.859 207.283 574.221 207.894 575.959 207.894 578.825 207.894 580.703 206.837 581.784 204.723 582.324 203.596 582.606 201.929 582.606 199.815L582.606 188.495C582.606 187.203 582.394 186.311 581.995 185.841 581.455 185.16 580.492 184.855 578.965 184.855L578.965 183.868 587.115 183.868ZM522.741 208.927 522.741 208.035C524.009 207.87 524.784 207.659 525.16 207.424 525.677 206.955 525.982 206.203 525.982 205.076L525.982 187.485C524.996 186.264 524.315 185.512 523.868 185.207 523.493 184.902 523.187 184.831 522.812 184.831L522.812 183.845 530.656 183.845 543.479 199.698 543.549 188.448C543.549 187.227 543.385 186.334 542.939 185.794 542.492 185.113 541.506 184.808 540.144 184.808L540.144 183.821 548.082 183.821 548.082 184.808C546.79 184.949 546.039 185.183 545.733 185.63 545.358 186.005 545.217 186.757 545.217 187.743L545.217 209.561 544.16 209.561 527.697 189.481 527.626 204.301C527.626 205.663 527.837 206.555 528.307 207.095 528.753 207.542 529.74 207.847 531.102 208.011L531.102 208.904 522.718 208.904ZM496.155 184.831 496.155 183.845 517.527 183.845 517.527 191.313 516.611 191.313C516.236 188.824 515.32 187.156 513.887 186.264 512.76 185.512 510.787 185.136 508.086 185.136 507.029 185.136 506.278 185.207 505.972 185.442 505.597 185.677 505.456 186.123 505.456 186.874L505.456 195.494C507.335 195.494 508.697 195.118 509.519 194.437 510.505 193.591 511.092 192.182 511.398 189.975L512.384 189.975 512.384 202.516 511.398 202.516C511.163 200.261 510.646 198.735 509.66 197.983 508.767 197.161 507.311 196.762 505.432 196.762L505.432 205.757C505.432 206.508 505.573 207.119 506.043 207.33 506.489 207.636 507.335 207.777 508.532 207.777 510.716 207.777 512.525 207.401 513.887 206.649 515.695 205.592 517.222 203.854 518.279 201.224L519.336 201.224 517.833 208.927 496.155 208.927 496.155 208.035C497.353 207.87 498.199 207.73 498.574 207.495 499.091 207.189 499.396 206.438 499.396 205.381L499.396 187.415C499.396 186.358 499.091 185.583 498.41 185.207 497.964 184.902 497.212 184.831 496.155 184.831L496.155 184.831ZM491.012 191.313 489.955 191.313C489.486 189.646 488.828 188.143 487.771 186.945 486.339 185.277 484.671 184.455 482.722 184.455 481.665 184.455 480.749 184.761 479.927 185.348 479.175 185.958 478.729 186.78 478.729 187.931 478.729 188.988 479.034 189.74 479.551 190.35 479.997 190.89 481.054 191.548 482.581 192.323L488.006 195.047C488.992 195.588 489.814 196.245 490.495 197.161 491.552 198.594 492.092 200.191 492.092 201.929 492.092 203.878 491.411 205.545 490.049 206.978 488.382 208.786 485.963 209.702 482.863 209.702 481.735 209.702 480.608 209.538 479.622 209.256 478.635 209.021 477.578 208.716 476.522 208.434 476.216 208.434 476.005 208.505 475.84 208.81 475.676 209.045 475.535 209.35 475.465 209.726L474.408 209.726 474.408 200.52 475.465 200.52C475.911 202.774 476.686 204.606 477.719 205.945 479.081 207.612 480.89 208.434 483.004 208.434 484.507 208.434 485.657 208.058 486.479 207.307 487.231 206.555 487.701 205.498 487.701 204.277 487.701 203.22 487.325 202.304 486.573 201.553 486.057 201.107 485 200.496 483.544 199.744L481.054 198.617C478.33 197.255 476.451 195.822 475.535 194.155 474.995 193.169 474.713 191.971 474.713 190.609 474.713 188.26 475.535 186.452 477.203 185.09 478.635 183.892 480.514 183.352 482.863 183.352 484.06 183.352 485.282 183.492 486.573 183.962 487.842 184.338 488.523 184.573 488.687 184.573 489.133 184.573 489.439 184.338 489.673 183.962 489.744 183.798 489.838 183.586 489.885 183.352L491.036 183.352 491.036 191.337 491.036 191.337ZM469.476 198.265 469.476 202.563 456.723 202.563 456.723 198.265 469.476 198.265ZM429.151 183.845 429.151 191.313 428.987 191.313 429.151 183.845 429.151 183.845ZM429.151 208.011C428.306 208.011 427.719 207.636 427.178 206.884 426.732 206.367 426.122 205.005 425.229 202.892L416.915 183.328 415.929 183.328 414.332 187.25 414.332 191.478 417.972 200.167 414.332 200.167 414.332 201.67 418.489 201.67C419.005 202.868 419.381 203.714 419.546 204.16 420.015 205.287 420.227 206.133 420.227 206.579 420.227 207.189 420.015 207.565 419.616 207.706 419.17 207.941 418.418 208.011 417.197 208.011L417.197 208.904 429.128 208.904 429.128 208.011ZM414.355 187.25 414.355 191.478 414.214 191.172 410.739 200.167 414.355 200.167 414.355 201.67 410.198 201.67C409.588 203.032 409.212 204.16 408.93 204.911 408.695 205.663 408.554 206.203 408.554 206.414 408.554 207.002 408.93 207.471 409.611 207.777 410.057 207.917 410.739 208.011 411.561 208.011L411.561 208.904 404.538 208.904 404.538 207.847C405.29 207.706 405.83 207.33 406.206 206.79 406.582 206.344 407.028 205.264 407.732 203.69L414.379 187.227 414.379 187.227ZM404.538 184.902 404.538 183.845 405.079 183.845 405.079 184.831C404.914 184.831 404.773 184.831 404.538 184.902ZM404.538 183.845 404.538 184.902C404.092 184.972 403.716 185.136 403.482 185.277 403.106 185.512 402.8 185.794 402.566 186.264L395.473 197.748 395.473 204.629C395.473 206.062 395.708 206.978 396.154 207.354 396.53 207.659 397.446 207.87 398.878 208.035L398.878 208.927 386.055 208.927 386.055 208.035C387.488 207.87 388.404 207.659 388.686 207.424 389.226 206.955 389.508 206.062 389.508 204.629L389.508 199.204 382.72 186.898C382.485 186.452 382.345 186.217 382.204 186.076 381.523 185.254 380.677 184.878 379.714 184.878L379.714 183.892 392.161 183.892 392.161 184.878C390.893 184.878 390.048 184.949 389.672 185.113 389.296 185.254 389.155 185.559 389.155 186.099 389.155 186.334 389.296 186.687 389.531 187.156 389.742 187.673 390.001 187.978 390.048 188.213L394.51 196.809 398.597 189.928C398.902 189.481 399.207 188.941 399.419 188.424 399.865 187.532 400.029 186.921 400.029 186.475 400.029 185.865 399.794 185.418 399.278 185.183 398.667 184.949 397.915 184.878 396.929 184.878L396.929 183.892 404.562 183.892ZM404.538 207.87C404.397 207.941 404.233 208.035 404.092 208.035L404.092 208.927 404.538 208.927 404.538 207.87 404.538 207.87ZM330.395 208.927 330.395 208.035C331.663 207.87 332.438 207.659 332.814 207.424 333.354 206.955 333.636 206.203 333.636 205.076L333.636 187.485C332.649 186.264 331.992 185.512 331.522 185.207 331.146 184.902 330.841 184.831 330.465 184.831L330.465 183.845 338.309 183.845 351.156 199.698 351.226 188.448C351.226 187.227 351.085 186.334 350.639 185.794 350.193 185.113 349.206 184.808 347.844 184.808L347.844 183.821 355.759 183.821 355.759 184.808C354.561 184.949 353.716 185.183 353.41 185.63 353.035 186.005 352.894 186.757 352.894 187.743L352.894 209.561 351.837 209.561 335.373 189.481 335.303 204.301C335.303 205.663 335.514 206.555 335.984 207.095 336.43 207.542 337.417 207.847 338.779 208.011L338.779 208.904 330.395 208.904ZM327.13 183.868 327.13 184.855C326.003 184.996 325.322 185.23 324.946 185.536 324.5 185.982 324.265 186.827 324.265 187.955L324.265 199.815C324.265 201.107 324.1 202.375 323.795 203.596 323.419 205.099 322.903 206.25 322.128 207.002 321.282 207.917 320.084 208.669 318.652 209.115 317.454 209.491 316.162 209.726 314.871 209.726 313.673 209.726 312.452 209.561 311.395 209.35 309.727 208.974 308.365 208.293 307.308 207.377 306.392 206.532 305.735 205.71 305.429 204.958 304.983 203.972 304.748 202.539 304.748 200.66L304.748 188.284C304.748 186.851 304.513 185.935 303.997 185.489 303.715 185.183 302.94 184.972 301.742 184.878L301.742 183.892 314.283 183.892 314.283 184.878C312.851 184.878 311.935 185.019 311.559 185.324 310.972 185.771 310.667 186.757 310.667 188.26L310.667 200.637C310.667 203.197 311.113 205.005 312.029 206.156 312.874 207.283 314.213 207.894 316.045 207.894 318.84 207.894 320.718 206.837 321.775 204.723 322.292 203.596 322.597 201.929 322.597 199.815L322.597 188.495C322.597 187.203 322.433 186.311 321.987 185.841 321.447 185.16 320.484 184.855 318.957 184.855L318.957 183.868 327.107 183.868ZM296.622 191.337 295.565 191.337C295.119 189.669 294.438 188.166 293.381 186.968 291.949 185.301 290.281 184.479 288.332 184.479 287.275 184.479 286.359 184.784 285.537 185.371 284.786 185.982 284.339 186.804 284.339 187.955 284.339 189.012 284.645 189.763 285.161 190.374 285.608 190.914 286.664 191.572 288.191 192.347L293.64 195.071C294.603 195.611 295.448 196.269 296.129 197.185 297.186 198.617 297.703 200.214 297.703 201.952 297.703 203.901 297.022 205.569 295.659 207.002 293.992 208.81 291.573 209.726 288.473 209.726 287.346 209.726 286.218 209.561 285.232 209.28 284.245 209.045 283.189 208.739 282.132 208.458 281.826 208.458 281.615 208.528 281.451 208.833 281.286 209.068 281.145 209.374 281.075 209.749L280.018 209.749 280.018 200.543 281.075 200.543C281.521 202.798 282.296 204.629 283.329 205.968 284.692 207.636 286.5 208.458 288.614 208.458 290.117 208.458 291.244 208.082 292.09 207.33 292.841 206.579 293.311 205.522 293.311 204.301 293.311 203.244 292.935 202.328 292.184 201.576 291.643 201.13 290.587 200.52 289.154 199.768L286.664 198.641C283.94 197.279 282.061 195.846 281.145 194.178 280.605 193.192 280.323 191.994 280.323 190.632 280.323 188.284 281.145 186.475 282.813 185.113 284.245 183.915 286.148 183.375 288.473 183.375 289.671 183.375 290.892 183.516 292.184 183.986 293.452 184.361 294.156 184.596 294.297 184.596 294.743 184.596 295.049 184.361 295.284 183.986 295.354 183.821 295.448 183.61 295.519 183.375L296.646 183.375 296.646 191.36Z" fill="#00561F" fill-rule="evenodd" transform="matrix(1.00129 0 0 1 222.375 336)"/><path d="M171.585 68.0141 171.585 62.9178C169.213 61.6965 167.381 60.8041 166.207 60.5457 165.667 60.4048 164.093 60.1934 163.553 60.1934 162.262 59.9821 162.121 60.5457 162.262 61.2268 162.59 62.7299 164.234 63.3405 164.704 63.27 166.207 62.9882 166.677 63.5988 167.757 64.0216 168.438 64.2329 170.129 64.6322 169.66 65.1019 169.119 65.6421 169.049 65.1724 168.509 65.5012 168.039 65.83 166.278 64.8201 165.643 65.3602 165.315 65.7125 165.714 66.7224 165.033 66.8633 164.634 66.9338 164.023 66.3232 163.483 65.9709 161.933 65.0784 160.289 63.5284 158.739 62.8473 157.048 62.1662 156.907 62.9882 157.095 64.0685 157.165 64.6792 157.095 64.961 157.635 66.1118 158.246 67.333 161.651 67.9437 162.872 69.1649 163.624 69.846 164.305 70.0574 163.953 70.3862 163.342 71.396 162.802 72.218 161.721 72.6173 160.712 73.087 156.625 68.8126 156.555 70.0339 156.695 70.9733 157.447 72.1476 157.564 73.1574 157.846 74.6605 157.846 75.8818 157.893 76.281 158.175 77.2439 160.007 77.6432 162.097 76.9621 162.99 76.6333 164.07 76.0696 165.009 75.5295 166.301 74.7779 167.663 71.7953 168.415 72.1945 170.176 73.1574 170.247 73.4862 171.538 75.0363L171.538 75.0363 171.538 70.4096C170.176 69.6581 169.025 68.977 169.425 68.5073 169.706 68.1785 170.505 67.9671 171.538 67.9671ZM163.506 55.5903C164.046 55.5903 167.311 51.2454 168.133 49.7424 168.344 48.8499 169.025 47.9105 169.425 47.5112 170.106 46.9711 170.575 47.112 170.857 47.5817 171.186 48.1923 171.139 49.3431 170.787 50.9871 170.575 52.0674 170.247 51.5977 170.035 51.95 168.885 53.3826 167.593 54.7448 166.841 55.7547 166.372 56.2948 167.123 56.9759 167.522 56.7645 168.885 55.144 170.388 52.9599 171.609 51.3864L171.609 55.9425 171.538 56.013C170.716 56.9055 170.247 56.4827 169.847 57.5161 169.918 57.7979 170.857 57.9858 171.609 57.9858L171.609 61.5791C171.21 61.2973 170.716 61.1094 170.388 60.898 170.106 60.7571 169.636 60.4987 169.096 60.4283 168.697 60.3578 168.133 60.6397 167.734 60.4283 167.123 60.0995 166.653 59.7472 166.301 59.5358 165.902 59.2775 165.62 59.207 165.08 58.9252 164.54 58.6434 163.459 58.0328 162.356 58.1032 161.346 58.1737 160.101 59.6767 159.302 60.0055 158.551 60.3343 157.87 60.6866 157.259 60.945 156.508 61.2738 155.897 61.5556 155.145 61.2268 154.065 60.7571 154.323 58.7843 154.934 58.2441 155.897 57.4926 156.695 56.882 157.447 56.06 157.917 55.5198 158.199 54.7683 158.598 54.369 158.997 53.9698 159.49 53.9698 159.89 53.8993 160.359 53.7584 160.899 53.6175 161.252 54.0402 161.581 54.369 161.581 54.8622 161.933 55.191 162.402 55.6607 162.825 55.6607 163.483 55.5903L163.483 55.5903ZM171.585 70.4801C171.985 70.7619 172.478 71.0203 172.947 71.3021 173.276 71.5135 173.558 71.5839 173.887 71.7013L173.887 76.1166C173.065 76.2575 172.055 75.7174 171.585 75.1067L171.585 70.4801ZM173.887 68.4369 173.887 64.2329C173.206 63.8337 172.595 63.4814 171.985 63.1526L171.585 62.9412 171.585 68.0376C172.196 68.0376 172.947 68.1081 173.488 68.3664 173.629 68.3664 173.769 68.4369 173.887 68.4369L173.887 68.4369ZM171.585 51.3864C172.055 50.7053 172.525 50.0947 172.947 49.6954 173.276 49.2961 173.629 48.756 173.887 48.3332L173.887 53.1478C173.746 53.2887 173.676 53.4061 173.558 53.547 173.629 53.6175 173.699 53.6879 173.887 53.7584L173.887 59.9351C173.558 60.0055 173.605 59.9351 173.347 60.1465 173.276 60.2874 173.629 60.6162 173.887 60.6866L173.887 62.9882 173.746 62.9178C172.994 62.448 172.243 61.9548 171.562 61.5556L171.562 57.9623C171.891 57.9623 172.243 57.8918 172.384 57.704 173.276 56.8115 173.676 56.2713 172.666 55.8721 172.595 55.9425 172.126 55.4728 171.585 55.9425L171.585 51.3864 171.585 51.3864ZM176.4 64.7027 176.4 61.4382C176.259 61.2973 176.118 61.0389 176.118 60.9685 176.259 60.8275 176.329 60.7571 176.4 60.7571L176.4 56.7411C176.118 56.7411 175.789 56.6706 175.719 56.6001 175.93 56.2009 176.001 56.2009 176.4 55.9895L176.4 55.9895 176.4 52.7955C176.329 52.9364 176.188 53.1243 176.001 53.2652 175.531 53.7349 174.451 53.8758 173.887 53.7349L173.887 59.9116 173.957 59.8411C174.31 59.7707 174.239 60.123 174.31 60.123 174.521 60.4518 174.451 60.5222 173.957 60.6631L173.887 60.6631 173.887 62.9647C174.826 63.5753 175.719 64.186 176.4 64.6557ZM173.887 71.7013C174.286 71.8423 174.638 71.9127 174.709 72.1711 175.108 73.5332 175.179 73.7211 174.638 75.3651 174.498 75.8348 174.239 76.0462 173.887 76.1166L173.887 71.7013 173.887 71.7013ZM176.4 68.1081C176.188 67.9671 175.93 67.8967 175.578 67.8262 175.038 67.8967 174.638 68.5778 173.887 68.4369L173.887 64.2329C174.826 64.8436 175.789 65.4542 176.4 65.8534L176.4 68.1081 176.4 68.1081ZM173.887 48.3332C174.169 47.7931 174.427 47.3938 174.779 47.3938 175.39 47.3938 176.071 48.1454 176.4 48.6855L176.4 51.128C176.4 51.128 176.188 50.9871 176.048 50.9871 175.836 50.9871 175.766 51.1985 175.719 51.2454 175.038 51.9265 174.427 52.4667 173.887 53.1478L173.887 48.3332 173.887 48.3332ZM176.4 48.662C176.4 48.662 176.541 48.8029 176.541 48.8734 176.752 49.3431 177.222 48.7325 177.551 48.8734 178.232 49.0848 178.842 49.6249 178.913 50.0947 179.054 50.6348 179.242 51.2454 179.594 51.5273L179.594 58.2441C179.453 58.1737 179.383 58.1032 179.312 58.0328 178.913 57.8214 178.772 58.3146 178.631 58.5729 178.561 58.7843 178.772 59.1131 179.101 59.254 179.289 59.4654 179.43 59.5828 179.57 59.7237L179.57 63.9276C179.57 63.9276 179.5 64.139 179.57 64.2095L179.57 70.3862C178.608 69.7051 177.668 68.6952 176.376 68.0846L176.376 65.83C176.588 65.9004 176.705 66.0413 176.846 66.0883 177.269 66.3701 177.809 66.0883 177.668 65.689 177.668 65.5481 177.128 65.2193 176.376 64.6792L176.376 61.4147C176.517 61.4851 176.588 61.5556 176.705 61.5556 176.917 61.4851 177.245 61.5556 177.245 61.2268 177.175 61.0154 177.175 60.898 176.823 60.7571 176.635 60.6162 176.494 60.6162 176.353 60.7571L176.353 56.7411C176.564 56.7411 176.635 56.6706 176.682 56.6001 177.081 56.2479 177.222 56.1304 176.823 55.9191 176.752 55.9895 176.682 55.8486 176.353 55.9895L176.353 52.7955C176.823 52.1144 176.893 51.5038 176.353 51.1045L176.353 48.662ZM179.594 64.2095 179.664 64.2095C181.849 65.2193 182.318 65.783 182.647 67.4739 182.929 68.9066 183.399 69.9164 182.248 70.7384 181.238 71.1377 180.416 70.8793 179.594 70.4096L179.594 64.2329ZM179.594 51.5038C179.805 51.7152 180.064 51.7856 180.416 51.7152 181.567 51.5742 182.248 49.2022 183.61 50.0242 184.361 50.6348 184.361 51.9265 184.432 52.6781 184.432 53.6175 183.821 54.1107 181.449 54.5099 181.308 54.5804 181.238 54.5099 180.839 54.9092 180.51 55.4494 181.449 55.9895 180.51 56.8115 180.04 57.2108 182.013 58.7843 182.13 59.0426 182.271 59.3949 182.741 59.1131 182.671 58.5729 182.6 58.432 182.53 57.8918 182.342 57.4221 182.06 56.6001 181.661 55.7312 181.872 55.3789 182.083 54.9092 182.882 55.3789 183.774 55.9895 184.455 56.4592 185.747 56.4592 186.146 57.0699 186.616 57.6805 187.039 57.9623 186.428 60.4048 186.287 60.8041 185.536 61.0859 184.855 61.2973 183.774 61.6965 183.164 62.3306 182.06 62.7299 181.449 62.9882 179.946 63.5519 179.617 63.9511L179.617 59.7472C179.829 59.8881 180.017 59.9586 180.228 59.9586 180.439 59.8881 180.698 59.5593 180.627 59.348 180.345 58.9487 179.946 58.526 179.617 58.2676L179.617 51.5508 179.617 51.5508Z" fill="#00561F" fill-rule="evenodd" transform="matrix(1.00129 0 0 1 222.375 336)"/><path d="M131.355 31.8699C132.858 32.3396 133.868 32.41 133.938 32.1517 134.337 30.9305 134.901 28.7463 134.948 26.9849 135.018 26.0924 135.77 25.7636 136.31 25.6227 137.602 25.2235 138.001 25.0121 138.612 25.2235 139.692 25.6932 140.303 26.6561 140.866 27.8773 141.078 28.488 141.618 27.8069 140.397 30.4607 139.856 31.7524 139.997 31.9638 140.185 32.2222 140.725 32.6214 141.406 32.551 142.487 32.551 143.778 32.4805 144.6 30.7895 146.221 34.1715 146.479 34.5707 146.55 35.1109 146.01 35.6041 145.329 36.1442 144.037 36.2147 142.487 36.614 140.444 37.0837 137.531 36.5435 137.602 37.9057 138.001 41.3111 140.185 46.4779 143.731 50.6113 144.624 51.6917 145.845 52.725 147.254 53.5235 149.298 54.6743 150.989 55.6372 149.767 55.8956 147.865 56.2948 141.406 55.7077 139.903 54.322 138.353 52.819 135.159 42.9081 134.666 40.9353 134.596 40.8648 134.455 40.7944 134.314 41.0057 132.764 42.9785 129.499 46.5718 126.916 47.7226 125.765 48.1923 124.473 47.4408 124.121 46.9711 123.722 46.5014 120.716 44.9983 120.457 43.8475 120.387 43.1664 120.81 43.2369 121.138 43.3073 125.342 44.1998 126.235 43.096 127.386 42.6262 130.439 41.3345 131.73 37.9996 131.472 37.7882 127.526 37.1071 126.094 37.2481 125.295 35.5571 124.145 30.1789 126.258 29.9206 128.419 30.7191 129.499 31.1888 130.932 31.729 131.331 31.7994Z" fill="#00561F" fill-rule="evenodd" transform="matrix(1.00129 0 0 1 222.375 336)"/><path d="M84.8767 42.7437C85.4169 42.6732 85.8866 42.7437 86.5677 43.2838 88.3996 44.5051 88.9397 46.8771 89.8322 48.0984 90.161 48.0984 90.7716 47.6991 91.5231 47.2294 92.486 46.5483 93.5664 45.8673 93.355 45.5854 92.6035 44.1528 88.5874 34.7116 87.7889 33.4904 87.7185 33.3495 87.4601 33.0207 87.3897 32.8798 85.8866 30.907 87.6715 29.3569 88.3291 29.1455 89.4094 28.8168 92.486 29.8266 92.533 30.907 92.3921 32.0578 93.5429 34.7821 94.6467 37.3655 95.6566 39.5496 96.549 41.7103 97.0188 42.4618 97.3006 43.1429 99.6726 41.0997 100.424 40.2777 101.434 39.5966 99.6022 36.0738 100.283 34.97 100.565 34.4298 103.477 33.6783 104.91 35.792 105.591 37.0132 105.92 38.7746 106.272 40.4186 106.554 41.5694 106.953 43.002 107.165 43.4717 107.376 44.0119 106.225 47.065 105.732 47.887 104.769 48.6385 103.219 46.196 102.608 44.8339 102.28 44.0824 102.209 43.824 101.927 43.7536 101.246 43.9649 99.6726 45.0453 98.9446 46.0082 98.5453 46.4779 98.6627 47.3703 98.0521 47.84 95.2104 48.9908 92.5565 50.8227 92.3451 51.4333 92.2042 51.7621 91.3353 53.547 91.2648 53.9463 91.1943 54.3455 90.0435 54.4864 89.7617 54.6978 89.1511 55.3084 88.1882 54.2281 86.8965 53.4766 85.5343 52.7955 85.8866 51.9265 85.8162 50.4939 85.8162 48.9204 84.9237 46.4779 84.1252 44.9278 83.7259 44.1058 83.2327 43.1664 84.8767 42.7672Z" fill="#00561F" fill-rule="evenodd" transform="matrix(1.00129 0 0 1 222.375 336)"/><path d="M52.1379 60.945C52.6781 60.6631 52.7485 60.123 52.8894 59.3245 53.5001 57.1403 53.5705 56.3418 54.2516 54.9092 53.1713 53.8993 51.95 52.9364 50.9166 51.9265 50.7053 51.7152 50.4469 51.5977 50.2356 51.5273 49.5545 51.3159 49.1552 50.5878 49.1552 49.6954L49.1552 49.4136C49.1552 48.7325 49.3666 47.981 49.8363 47.2529 50.0947 46.8536 52.6781 45.8907 53.4296 46.6423 54.5099 47.7226 55.6607 49.1552 56.835 49.9772 56.9055 49.9068 57.0464 49.7659 57.1638 49.7189L57.1638 58.7608C57.0229 58.6199 56.882 58.5494 56.835 58.479 56.4357 58.479 56.4827 59.0191 56.4827 59.2305 56.2244 60.2404 55.6607 60.9919 54.9796 61.4147 54.5804 61.5556 56.1304 62.7768 57.1638 63.2466L57.1638 70.7854C56.9524 70.715 56.7645 70.6445 56.4827 70.574 55.4728 70.5036 54.5804 70.5036 53.7584 69.6816 53.2887 68.6717 53.0069 68.1785 52.7955 67.5209 52.6546 67.2391 52.4667 66.9808 52.1849 66.6519 51.3629 65.7595 50.7522 64.9375 50.2825 63.7867 50.0712 63.1056 50.4939 61.2033 52.1144 60.9919ZM57.1638 49.6719C57.704 49.2022 58.385 48.5211 59.0661 47.7696 59.6767 46.8771 60.0055 45.3271 60.6162 44.5755 60.7571 44.4346 60.898 44.3642 61.0154 44.2937L61.0154 50.0007C60.123 50.3295 59.3949 51.6917 59.1836 52.3023 59.254 52.7015 60.2169 53.8758 61.0154 54.6039L61.0154 70.6445C60.6162 71.0437 60.076 71.396 59.5123 71.4665 58.9017 71.5369 58.2206 70.9968 57.1403 70.715L57.1403 63.1761C57.4691 63.3875 57.8214 63.4579 57.9623 63.317 58.9722 62.495 59.1131 62.3071 59.3949 61.2033 59.5358 60.8041 57.9623 59.301 57.1403 58.6904L57.1403 49.6484ZM61.0389 44.2937C62.2602 43.5422 64.5617 43.6126 65.6656 44.0824 66.6754 44.6225 66.8164 45.7733 66.558 46.5953L66.2762 47.2059C65.9944 48.0279 66.3466 50.1886 66.605 50.4 66.9338 50.7992 67.2156 51.081 67.8967 50.9401 68.4369 51.0106 69.3998 53.0538 68.977 53.9932 68.8361 54.322 68.7891 54.6743 68.2959 55.2145 67.1451 56.2948 66.4641 58.0562 66.1118 59.8411 69.6346 63.364 72.7112 66.8398 76.0931 70.4331 77.7136 72.4764 78.8175 74.7779 77.9955 75.8113 77.3144 76.4219 75.1302 75.6704 72.7582 73.4393L62.9178 64.2095C62.448 64.961 61.9783 66.1822 61.3677 67.6149L61.3677 68.8361C61.4382 69.2354 61.6495 69.7286 61.5086 70.0574 61.3677 70.2687 61.2268 70.4566 61.0389 70.668L61.0389 54.6274C61.5086 55.0971 61.9783 55.4494 62.1192 55.3789 62.9412 54.7683 63.0117 53.1478 62.8003 52.5371 62.589 51.6447 62.1897 50.353 61.2503 49.9537 61.1798 50.0242 61.1094 50.0242 61.0389 50.0242L61.0389 44.3172Z" fill="#00561F" fill-rule="evenodd" transform="matrix(1.00129 0 0 1 222.375 336)"/><path d="M116.512 0C52.1614 0 0 52.1614 0 116.512 0 180.862 52.1614 233.023 116.512 233.023 180.862 233.023 233.023 180.862 233.023 116.512 233.023 52.1614 180.839 0 116.512 0ZM116.512 225.32C56.4123 225.32 7.70326 176.611 7.70326 116.512 7.70326 56.4123 56.4123 7.67977 116.512 7.67977 176.611 7.67977 225.32 56.3888 225.32 116.488 225.32 176.588 176.611 225.297 116.512 225.297ZM116.512 10.8503C58.1502 10.8503 10.8503 58.1502 10.8503 116.512 10.8503 174.873 58.1502 222.173 116.512 222.173 174.873 222.173 222.173 174.873 222.173 116.512 222.173 58.1502 174.85 10.8503 116.512 10.8503ZM116.512 219.942C59.3714 219.942 13.0814 173.629 13.0814 116.512 13.0814 59.3949 59.3714 13.058 116.512 13.058 173.652 13.058 219.942 59.3714 219.942 116.488 219.942 173.605 173.629 219.919 116.512 219.919Z" fill="#00561F" fill-rule="evenodd" transform="matrix(1.00129 0 0 1 222.375 336)"/><path d="M45.8673 99.4612 40.0898 97.9582 40.2307 97.4415C41.7338 97.6059 43.0725 97.3241 44.2233 96.6195 45.3741 95.9149 46.1021 94.999 46.4309 93.8717 46.6892 93.0027 46.6423 92.2512 46.3135 91.6171 45.9847 90.983 45.5385 90.5837 44.9278 90.3958 44.5521 90.2784 44.1763 90.2784 43.8475 90.3958 43.3778 90.5367 42.8846 90.8186 42.3209 91.2413 41.9217 91.5701 41.1701 92.3451 40.0428 93.5664 38.4693 95.3043 37.1541 96.3846 36.0738 96.8309 34.9935 97.2771 33.8896 97.3241 32.7623 97.0188 31.3297 96.6195 30.2494 95.7036 29.5213 94.2709 28.8168 92.8618 28.6993 91.2883 29.1925 89.5504 29.3334 89.0102 29.5448 88.517 29.8031 88.0708 30.0615 87.6245 30.4373 87.0844 30.9305 86.4268 31.2123 86.0745 31.4002 85.7692 31.4706 85.4874 31.5411 85.276 31.5176 85.0176 31.4236 84.7123 31.3297 84.4305 31.1183 84.1487 30.813 83.8903L30.9539 83.4206 37.4594 85.276 37.3185 85.7457C35.3927 85.6048 33.7957 85.9101 32.5275 86.7086 31.2593 87.5071 30.4607 88.517 30.1085 89.7382 29.8266 90.6777 29.8736 91.5231 30.2259 92.2277 30.5782 92.9323 31.0949 93.402 31.7994 93.5899 32.1987 93.7073 32.6214 93.7073 33.0676 93.5899 33.5139 93.4724 33.9601 93.2611 34.4298 92.9088 34.8995 92.5565 35.5571 91.9224 36.4261 90.9595 37.6473 89.6208 38.6102 88.6814 39.3618 88.1412 40.0898 87.6011 40.8648 87.2488 41.6164 87.0844 42.3914 86.8965 43.1899 86.9435 43.9884 87.1548 45.3506 87.5541 46.3839 88.3761 47.065 89.6678 47.7461 90.9595 47.8635 92.3686 47.4173 93.8952 47.2529 94.4588 47.0415 94.9755 46.7597 95.4687 46.5483 95.8445 46.2195 96.2672 45.7733 96.7604 45.3271 97.2536 45.0922 97.6059 45.0218 97.8407 44.9513 98.0521 44.9748 98.2635 45.0687 98.4279 45.1627 98.5923 45.468 98.8036 45.9377 99.062L45.8203 99.4378Z" fill="#00561F" transform="matrix(1.00129 0 0 1 222.375 336)"/><path d="M45.0453 99.8605 43.8005 109.02 43.3073 108.949 43.3778 108.503C43.4717 107.822 43.4717 107.329 43.3778 107.047 43.2604 106.765 43.096 106.554 42.8611 106.413 42.6262 106.272 41.9921 106.131 40.9823 105.99L32.2926 104.816C30.6956 104.605 29.6387 104.581 29.0986 104.745 28.5584 104.91 28.0652 105.262 27.666 105.755 27.2432 106.249 26.9849 106.93 26.8675 107.775 26.7265 108.738 26.844 109.584 27.1728 110.312 27.525 111.04 28.0417 111.627 28.7463 112.073 29.4509 112.519 30.7661 112.848 32.6449 113.106L39.8784 114.093C40.6769 114.21 41.2406 114.187 41.6164 114.093 41.9687 113.975 42.2505 113.787 42.4149 113.553 42.6732 113.177 42.8376 112.637 42.9316 111.932L43.4248 112.003 42.5793 118.132 42.0861 118.062 42.1331 117.686C42.2035 117.193 42.1565 116.77 41.9921 116.394 41.8277 116.042 41.5694 115.76 41.1936 115.549 40.9353 115.408 40.4421 115.267 39.714 115.173L32.9737 114.257C30.8835 113.975 29.4039 113.623 28.5114 113.224 27.619 112.825 26.8675 112.026 26.2333 110.875 25.5992 109.701 25.4114 108.198 25.6697 106.366 25.8811 104.839 26.2568 103.665 26.7735 102.89 27.4781 101.833 28.3236 101.105 29.2395 100.753 30.1789 100.401 31.3767 100.33 32.8563 100.518L41.5459 101.692C42.5558 101.833 43.2134 101.857 43.4717 101.786 43.7301 101.716 43.9649 101.528 44.1528 101.27 44.3407 101.011 44.4816 100.518 44.5755 99.7666L45.0687 99.837Z" fill="#00561F" transform="matrix(1.00129 0 0 1 222.375 336)"/><path d="M42.9316 121.514 32.2926 130.908 39.9724 130.509C41.0527 130.462 41.7573 130.274 42.1331 129.945 42.6262 129.499 42.8376 128.771 42.7672 127.785L43.2604 127.785C43.2604 127.785 43.5657 133.68 43.5657 133.68L43.0725 133.68C42.9316 132.952 42.7906 132.458 42.6262 132.2 42.4618 131.942 42.2035 131.754 41.8512 131.636 41.4989 131.519 40.8883 131.472 40.0428 131.519L25.153 132.271 25.153 131.824C25.153 131.824 39.4087 118.978 39.4087 118.978L28.0417 119.565C27.0084 119.612 26.3273 119.894 25.9985 120.387 25.6697 120.88 25.5053 121.42 25.5288 122.031L25.5288 122.454C25.5288 122.454 25.0591 122.477 25.0591 122.477L24.7303 116.136 25.2235 116.136C25.2704 117.099 25.5288 117.78 25.928 118.132 26.3508 118.508 27.0319 118.649 27.9713 118.602L40.583 117.968 41.0292 117.569C41.4755 117.169 41.7808 116.817 41.9217 116.512 42.0626 116.206 42.1096 115.784 42.1096 115.244L42.6028 115.244C42.6028 115.244 42.9316 121.561 42.9316 121.561Z" fill="#00561F" transform="matrix(1.00129 0 0 1 222.375 336)"/><path d="M51.3159 155.474 50.8697 155.662C50.5878 155.145 50.259 154.793 49.8833 154.582 49.3666 154.3 48.1923 154.042 46.29 153.76L38.8216 152.539 34.8056 154.136C33.9366 154.464 33.4199 154.723 33.2555 154.911 33.0911 155.075 32.9737 155.333 32.9032 155.662 32.8563 155.991 32.9032 156.367 33.0911 156.813L33.4669 157.752 33.0207 157.94 29.3099 148.593 29.7562 148.405 30.1085 149.274C30.2963 149.767 30.5547 150.12 30.8365 150.331 31.0244 150.495 31.3062 150.589 31.635 150.589 31.8699 150.589 32.41 150.448 33.232 150.12L36.567 148.804 42.1331 142.064C43.2369 140.725 43.8475 139.856 43.9649 139.434 44.0824 139.011 44.0589 138.541 43.8475 138.001L44.2937 137.813 47.4643 145.798 47.018 145.986 46.8771 145.634C46.6892 145.141 46.4779 144.835 46.2665 144.694 46.0551 144.553 45.8673 144.53 45.7029 144.577 45.3975 144.694 44.7869 145.305 43.871 146.432L39.5496 151.623 45.7733 152.632C47.2999 152.891 48.2628 152.938 48.662 152.773 48.8734 152.679 49.0378 152.515 49.0848 152.233 49.1787 151.881 49.0848 151.317 48.8499 150.542L49.2961 150.354 51.3159 155.427Z" fill="#00561F" transform="matrix(1.00129 0 0 1 222.375 336)"/><path d="M43.824 166.395 40.3951 161.087 38.5163 161.393C37.8822 161.51 37.4359 161.651 37.1071 161.862 36.6844 162.144 36.473 162.496 36.4965 162.99 36.4965 163.271 36.7314 163.812 37.1776 164.634L36.7784 164.892 33.5373 159.89 33.9366 159.631C34.3593 160.124 34.876 160.406 35.4632 160.524 36.0503 160.641 37.0837 160.571 38.5633 160.336L54.0402 157.94 54.1811 158.152 45.3506 171.562C44.5286 172.83 44.0589 173.723 43.9649 174.263 43.8945 174.662 43.9884 175.108 44.2467 175.578L43.8475 175.836 39.1504 168.556 39.5731 168.297 39.761 168.603C40.1368 169.19 40.4891 169.542 40.7944 169.683 41.0057 169.777 41.2406 169.73 41.452 169.589 41.5929 169.495 41.7103 169.401 41.8277 169.26 41.8747 169.213 42.0861 168.908 42.4384 168.391L43.8005 166.372ZM44.4111 165.479 48.1454 159.89 41.4755 160.923 44.4111 165.479Z" fill="#00561F" transform="matrix(1.00129 0 0 1 222.375 336)"/><path d="M67.2861 174.145 63.7632 177.48 63.4344 177.128C64.0451 176.142 64.4208 175.367 64.5383 174.779 64.6557 174.192 64.6087 173.582 64.4208 172.947 64.3034 172.595 63.9511 172.126 63.3875 171.515L62.4715 170.552 52.4667 180.064C51.8091 180.698 51.4333 181.12 51.3394 181.355 51.2454 181.59 51.222 181.872 51.3159 182.201 51.3864 182.53 51.6212 182.882 51.95 183.258L52.3727 183.68 52.0205 184.009 45.5619 177.222 45.9142 176.893 46.3135 177.316C46.6658 177.692 47.018 177.926 47.3703 178.044 47.6052 178.114 47.887 178.114 48.1923 177.997 48.4037 177.926 48.8499 177.574 49.5075 176.964L59.5123 167.452 58.6199 166.512C57.7979 165.643 56.9994 165.174 56.2479 165.127 55.2145 165.056 54.1342 165.409 53.0303 166.184L52.6781 165.831 56.2009 162.496 67.2861 174.145Z" fill="#00561F" transform="matrix(1.00129 0 0 1 222.375 336)"/><path d="M65.9709 186.546 60.851 182.577 62.2602 180.745 67.38 184.714 65.9709 186.522Z" fill="#00561F" transform="matrix(1.00129 0 0 1 222.375 336)"/><path d="M82.1524 183.305 79.1697 188.495 78.7 188.213C79.2637 186.804 79.3576 185.442 78.9584 184.15 78.5826 182.858 77.9015 181.895 76.8916 181.308 76.1166 180.839 75.3886 180.674 74.684 180.815 73.9794 180.956 73.4862 181.285 73.1574 181.825 72.9461 182.154 72.8521 182.506 72.8521 182.882 72.8521 183.375 72.993 183.939 73.2514 184.573 73.4628 185.043 74.0029 185.982 74.8954 187.391 76.1401 189.364 76.8447 190.914 77.0091 192.088 77.15 193.239 76.9151 194.343 76.3045 195.329 75.5295 196.597 74.3552 197.396 72.8052 197.725 71.2551 198.054 69.7051 197.725 68.155 196.809 67.6618 196.527 67.2391 196.198 66.8868 195.822 66.511 195.47 66.0883 194.953 65.6186 194.272 65.3602 193.897 65.1019 193.638 64.8671 193.497 64.6792 193.38 64.4208 193.333 64.1155 193.356 63.8102 193.356 63.4814 193.497 63.1761 193.732L62.7534 193.474 66.2762 187.696 66.6989 187.955C66.0413 189.787 65.9239 191.407 66.3466 192.84 66.7694 194.272 67.5209 195.306 68.6247 195.987 69.4702 196.503 70.2687 196.668 71.0672 196.527 71.8423 196.363 72.4294 195.987 72.7817 195.376 72.993 195.024 73.1105 194.601 73.134 194.155 73.134 193.709 73.04 193.192 72.8521 192.652 72.6408 192.112 72.1945 191.29 71.49 190.209 70.5271 188.683 69.8695 187.485 69.5642 186.64 69.2354 185.794 69.0945 184.972 69.1414 184.174 69.1884 183.375 69.3998 182.624 69.846 181.919 70.5975 180.698 71.6544 179.946 73.087 179.617 74.4961 179.312 75.8818 179.57 77.2439 180.392 77.7371 180.698 78.1833 181.05 78.5826 181.449 78.8879 181.755 79.2167 182.177 79.569 182.741 79.9213 183.305 80.2031 183.633 80.4145 183.751 80.6024 183.868 80.7903 183.915 80.9781 183.845 81.166 183.798 81.4478 183.563 81.8236 183.164L82.1524 183.375Z" fill="#00561F" transform="matrix(1.00129 0 0 1 222.375 336)"/><path d="M87.7654 187.391 85.0646 194.155 85.3934 194.296C86.4503 194.719 87.3427 194.695 88.0942 194.225 88.8223 193.756 89.5269 192.887 90.161 191.665L90.6307 191.853 87.1548 200.566 86.6851 200.379C86.9669 199.392 87.0609 198.523 86.9904 197.795 86.92 197.067 86.7086 196.503 86.3798 196.128 86.051 195.752 85.4874 195.4 84.6889 195.094L82.81 199.768C82.4577 200.684 82.2698 201.271 82.2464 201.506 82.2464 201.741 82.3168 201.976 82.4812 202.187 82.6456 202.398 82.9509 202.61 83.4206 202.798L84.407 203.197C85.9571 203.807 87.3427 203.948 88.564 203.596 89.7852 203.244 90.889 202.422 91.8989 201.107L92.3451 201.295 89.4799 206.273 75.1067 200.543 75.2946 200.097 75.8583 200.308C76.328 200.496 76.7742 200.566 77.1265 200.52 77.3848 200.496 77.6197 200.355 77.8546 200.12 78.019 199.956 78.2773 199.463 78.6061 198.617L82.9744 187.673C83.2797 186.921 83.4441 186.452 83.4676 186.264 83.4911 185.935 83.4441 185.677 83.2797 185.418 83.0683 185.066 82.6691 184.784 82.1524 184.573L81.5888 184.361 81.7766 183.915 95.7036 189.458 93.7543 194.366 93.2846 194.178C93.5194 192.887 93.5429 191.9 93.308 191.196 93.0967 190.515 92.627 189.881 91.9459 189.317 91.5466 188.988 90.7246 188.565 89.4564 188.072L87.742 187.391Z" fill="#00561F" transform="matrix(1.00129 0 0 1 222.375 336)"/><path d="M101.786 190.843 108.48 203.338 109.865 195.775C110.053 194.719 110.03 193.967 109.795 193.544 109.466 192.957 108.808 192.605 107.846 192.44L107.94 191.947 113.764 193.004 113.67 193.474C112.918 193.427 112.378 193.474 112.096 193.568 111.815 193.662 111.58 193.873 111.368 194.202 111.157 194.507 110.993 195.094 110.828 195.916L108.151 210.571 107.705 210.501 98.4514 193.662 96.4081 204.864C96.2202 205.874 96.3377 206.602 96.7369 207.048 97.1362 207.495 97.6294 207.753 98.24 207.87L98.6627 207.941 98.5688 208.434 92.3216 207.307 92.4156 206.837C93.3785 207.002 94.1065 206.931 94.5528 206.602 94.999 206.273 95.3043 205.663 95.4922 204.723L97.7468 192.3 97.465 191.759C97.1832 191.219 96.9013 190.867 96.643 190.656 96.3846 190.468 95.9854 190.303 95.4452 190.186L95.5392 189.716 101.786 190.843Z" fill="#00561F" transform="matrix(1.00129 0 0 1 222.375 336)"/><path d="M118.931 193.028 128.067 191.689 128.137 192.182 127.667 192.253C126.986 192.347 126.517 192.487 126.282 192.675 126.047 192.863 125.882 193.075 125.812 193.356 125.742 193.615 125.765 194.272 125.929 195.282L127.198 203.948C127.433 205.545 127.714 206.555 128.02 207.048 128.348 207.518 128.795 207.894 129.382 208.152 129.969 208.411 130.697 208.481 131.542 208.364 132.505 208.223 133.28 207.894 133.891 207.354 134.502 206.814 134.924 206.156 135.136 205.358 135.347 204.559 135.324 203.197 135.065 201.318L134.008 194.084C133.891 193.286 133.727 192.746 133.515 192.417 133.304 192.088 133.046 191.9 132.787 191.806 132.364 191.665 131.801 191.642 131.073 191.736L131.002 191.266 137.132 190.374 137.202 190.867 136.827 190.914C136.334 190.984 135.934 191.149 135.629 191.407 135.324 191.665 135.136 191.994 135.042 192.417 134.971 192.722 134.995 193.215 135.089 193.944L136.075 200.684C136.381 202.774 136.474 204.301 136.334 205.264 136.193 206.226 135.652 207.166 134.713 208.105 133.774 209.045 132.364 209.632 130.533 209.914 129.006 210.125 127.785 210.102 126.892 209.82 125.671 209.444 124.755 208.833 124.168 208.035 123.581 207.236 123.158 206.109 122.947 204.629L121.679 195.963C121.538 194.953 121.373 194.319 121.232 194.084 121.091 193.85 120.857 193.685 120.551 193.568 120.246 193.45 119.729 193.474 118.978 193.568L118.907 193.075Z" fill="#00561F" transform="matrix(1.00129 0 0 1 222.375 336)"/><path d="M141.5 188.565 153.595 195.987 150.965 188.753C150.589 187.743 150.19 187.109 149.791 186.874 149.227 186.546 148.476 186.546 147.536 186.898L147.372 186.428 152.938 184.408 153.102 184.878C152.421 185.23 151.998 185.512 151.787 185.747 151.599 185.982 151.482 186.287 151.482 186.663 151.482 187.039 151.599 187.626 151.881 188.424L156.977 202.445 156.555 202.61 140.068 192.746 143.966 203.432C144.319 204.395 144.788 204.982 145.352 205.146 145.916 205.334 146.479 205.311 147.066 205.099L147.466 204.958 147.63 205.428 141.665 207.612 141.5 207.142C142.416 206.79 143.003 206.367 143.238 205.874 143.473 205.381 143.426 204.676 143.097 203.784L138.776 191.9 138.259 191.595C137.743 191.266 137.32 191.102 136.991 191.055 136.662 191.008 136.24 191.055 135.723 191.243L135.559 190.773 141.524 188.589Z" fill="#00561F" transform="matrix(1.00129 0 0 1 222.375 336)"/><path d="M169.425 194.648 169.66 195.071 161.534 199.698 161.299 199.275 161.815 198.993C162.262 198.735 162.59 198.453 162.755 198.124 162.896 197.913 162.943 197.631 162.896 197.302 162.896 197.067 162.637 196.574 162.191 195.775L156.367 185.536C155.92 184.737 155.592 184.268 155.38 184.127 155.192 183.986 154.911 183.892 154.582 183.892 154.253 183.892 153.854 184.009 153.408 184.268L152.891 184.549 152.656 184.127 160.782 179.5 161.017 179.923 160.5 180.228C160.054 180.486 159.725 180.768 159.537 181.097 159.396 181.308 159.349 181.59 159.373 181.919 159.373 182.154 159.631 182.647 160.077 183.446L165.902 193.685C166.348 194.484 166.677 194.953 166.888 195.094 167.1 195.235 167.358 195.329 167.71 195.329 168.062 195.329 168.438 195.212 168.885 194.953L169.401 194.648Z" fill="#00561F" transform="matrix(1.00129 0 0 1 222.375 336)"/><path d="M174.779 168.368 175.085 168.744C174.662 169.237 174.427 169.871 174.404 170.669 174.404 171.257 174.638 172.384 175.108 174.122L179.101 188.589 178.772 188.871 164.962 181.849C163.295 181.003 162.285 180.533 161.886 180.463 161.51 180.392 161.017 180.557 160.43 180.933L160.124 180.557 166.724 175.085 167.029 175.46 166.794 175.648C166.207 176.142 165.855 176.564 165.761 176.893 165.69 177.128 165.737 177.339 165.902 177.527 165.996 177.645 166.16 177.762 166.348 177.879 166.536 177.997 167.1 178.302 168.016 178.772L176.635 183.187 174.286 174.826C174.004 173.816 173.793 173.159 173.652 172.854 173.511 172.548 173.37 172.29 173.229 172.126 173.065 171.914 172.854 171.797 172.619 171.726 172.384 171.656 172.126 171.679 171.844 171.773 171.444 171.891 171.022 172.172 170.528 172.572L170.223 172.196 174.756 168.438Z" fill="#00561F" transform="matrix(1.00129 0 0 1 222.375 336)"/><path d="M178.302 164.822 184.15 169.166 184.361 168.885C185.043 167.969 185.23 167.1 184.972 166.254 184.714 165.432 184.056 164.54 183.023 163.6L183.328 163.201 190.867 168.791 190.562 169.19C189.669 168.673 188.871 168.344 188.143 168.227 187.415 168.109 186.827 168.156 186.381 168.391 185.935 168.626 185.442 169.072 184.949 169.753L189.012 172.76C189.81 173.347 190.303 173.676 190.538 173.746 190.773 173.816 191.008 173.793 191.243 173.699 191.501 173.605 191.759 173.347 192.065 172.924L192.699 172.055C193.685 170.716 194.178 169.401 194.155 168.133 194.155 166.865 193.615 165.573 192.605 164.281L192.887 163.882 196.973 167.922 187.767 180.345 187.368 180.064 187.72 179.594C188.025 179.171 188.213 178.795 188.237 178.42 188.284 178.161 188.213 177.903 188.049 177.621 187.931 177.41 187.509 177.057 186.804 176.517L177.339 169.495C176.682 169.002 176.282 168.744 176.095 168.65 175.789 168.532 175.507 168.532 175.226 168.626 174.826 168.744 174.451 169.049 174.098 169.519L173.746 169.988 173.347 169.706 182.271 157.682 186.522 160.829 186.217 161.228C185.019 160.665 184.056 160.406 183.328 160.43 182.6 160.477 181.872 160.735 181.167 161.275 180.745 161.581 180.134 162.262 179.336 163.365L178.232 164.845Z" fill="#00561F" transform="matrix(1.00129 0 0 1 222.375 336)"/><path d="M194.39 154.864 199.063 156.719C199.956 157.071 200.543 157.259 200.825 157.236 201.107 157.236 201.365 157.095 201.623 156.883 201.882 156.672 202.14 156.179 202.445 155.404L202.892 155.592 199.51 164.117 199.063 163.929C199.369 163.154 199.51 162.614 199.463 162.285 199.439 161.956 199.322 161.698 199.134 161.487 198.946 161.275 198.406 160.993 197.513 160.641L186.71 156.343C185.818 155.991 185.23 155.827 184.949 155.827 184.667 155.827 184.408 155.967 184.15 156.179 183.892 156.39 183.633 156.883 183.328 157.658L182.882 157.471 185.958 149.744C186.757 147.724 187.485 146.315 188.143 145.493 188.8 144.671 189.599 144.107 190.585 143.825 191.572 143.544 192.558 143.591 193.568 143.99 194.789 144.483 195.635 145.329 196.081 146.526 196.363 147.301 196.433 148.241 196.292 149.345L203.502 147.583C204.442 147.348 205.052 147.16 205.311 146.996 205.71 146.761 205.992 146.432 206.18 145.986L206.626 146.174 204.536 151.411 194.813 153.76 194.39 154.864ZM186.24 151.623 193.521 154.511 193.803 153.807C194.249 152.679 194.484 151.787 194.507 151.129 194.507 150.472 194.319 149.885 193.92 149.345 193.497 148.804 192.863 148.358 191.971 148.006 190.703 147.513 189.646 147.419 188.8 147.771 187.955 148.123 187.274 148.945 186.757 150.284L186.24 151.599Z" fill="#00561F" transform="matrix(1.00129 0 0 1 222.375 336)"/><path d="M190.421 130.274 196.339 131.12 196.245 131.66C194.719 131.66 193.427 132.083 192.37 132.928 191.313 133.774 190.679 134.76 190.491 135.911 190.35 136.803 190.468 137.531 190.843 138.142 191.243 138.729 191.736 139.081 192.347 139.199 192.746 139.269 193.098 139.222 193.427 139.105 193.873 138.917 194.343 138.588 194.836 138.095 195.188 137.743 195.846 136.874 196.832 135.512 198.194 133.609 199.392 132.388 200.402 131.801 201.435 131.237 202.516 131.049 203.667 131.237 205.146 131.472 206.32 132.271 207.189 133.586 208.058 134.924 208.364 136.474 208.058 138.236 207.964 138.8 207.824 139.316 207.636 139.786 207.448 140.256 207.119 140.843 206.696 141.547 206.461 141.947 206.297 142.275 206.273 142.534 206.226 142.769 206.273 143.003 206.414 143.285 206.555 143.567 206.767 143.825 207.095 144.037L207.025 144.53 200.355 143.426 200.426 142.933C202.375 142.863 203.925 142.369 205.076 141.43 206.25 140.514 206.931 139.41 207.142 138.142 207.307 137.179 207.166 136.357 206.743 135.676 206.297 135.018 205.733 134.619 205.029 134.502 204.606 134.431 204.183 134.478 203.761 134.643 203.338 134.807 202.915 135.065 202.492 135.465 202.07 135.864 201.482 136.568 200.707 137.625 199.651 139.105 198.782 140.138 198.1 140.749 197.419 141.359 196.715 141.806 195.963 142.064 195.212 142.322 194.437 142.393 193.615 142.252 192.206 142.017 191.102 141.312 190.28 140.091 189.458 138.893 189.176 137.508 189.434 135.934 189.528 135.371 189.693 134.807 189.928 134.29 190.092 133.891 190.374 133.445 190.75 132.905 191.125 132.364 191.337 131.989 191.384 131.754 191.431 131.519 191.384 131.331 191.266 131.19 191.149 131.026 190.843 130.861 190.327 130.65L190.397 130.251Z" fill="#00561F" transform="matrix(1.00129 0 0 1 222.375 336)"/><path d="M209.397 119.847 209.89 119.847C209.89 119.847 209.749 129.217 209.749 129.217L209.256 129.217C209.256 129.217 209.256 128.607 209.256 128.607 209.256 128.09 209.186 127.667 208.998 127.339 208.88 127.104 208.669 126.939 208.364 126.798 208.152 126.704 207.589 126.634 206.696 126.634L194.906 126.47C193.991 126.47 193.427 126.493 193.192 126.587 192.957 126.681 192.769 126.869 192.581 127.174 192.394 127.456 192.323 127.855 192.3 128.372L192.3 128.959C192.3 128.959 191.806 128.959 191.806 128.959L191.947 119.588 192.44 119.588C192.44 119.588 192.44 120.199 192.44 120.199 192.44 120.716 192.511 121.138 192.699 121.467 192.816 121.702 193.028 121.89 193.333 122.007 193.544 122.101 194.084 122.172 195 122.172L206.79 122.336C207.706 122.336 208.27 122.313 208.505 122.219 208.739 122.125 208.951 121.937 209.115 121.632 209.303 121.35 209.374 120.951 209.397 120.434L209.397 119.847Z" fill="#00561F" transform="matrix(1.00129 0 0 1 222.375 336)"/><path d="M191.031 103.125 195.846 102.491 195.916 102.961C194.836 103.383 194.084 103.806 193.638 104.205 193.192 104.605 192.863 105.121 192.652 105.755 192.534 106.108 192.534 106.695 192.652 107.517L192.816 108.832 206.508 107.047C207.424 106.93 207.964 106.812 208.199 106.671 208.411 106.554 208.599 106.319 208.716 106.014 208.857 105.708 208.88 105.286 208.81 104.792L208.739 104.205 209.233 104.135 210.454 113.435 209.961 113.506 209.89 112.918C209.82 112.402 209.679 112.003 209.444 111.721 209.303 111.509 209.068 111.368 208.739 111.274 208.528 111.204 207.964 111.228 207.072 111.345L193.38 113.13 193.544 114.422C193.709 115.619 194.061 116.465 194.648 116.934 195.447 117.592 196.527 117.944 197.866 117.968L197.936 118.461 193.145 119.095 191.055 103.148Z" fill="#00561F" transform="matrix(1.00129 0 0 1 222.375 336)"/><path d="M185.653 84.3835 186.123 84.2426C186.358 84.7828 186.663 85.182 186.992 85.3934 187.462 85.7222 188.636 86.098 190.468 86.5442L197.772 88.4465 201.929 87.2253C202.821 86.9669 203.361 86.7556 203.549 86.6147 203.737 86.4503 203.878 86.2154 203.948 85.8866 204.042 85.5578 204.019 85.182 203.878 84.7123L203.596 83.7494 204.066 83.6085 206.884 93.2611 206.414 93.402 206.156 92.5095C206.015 91.9928 205.804 91.6171 205.545 91.3822 205.358 91.1943 205.099 91.0769 204.794 91.0299 204.559 91.0065 204.019 91.1004 203.15 91.3587L199.698 92.3686 193.521 98.5688C192.3 99.79 191.618 100.612 191.454 101.011 191.29 101.411 191.29 101.904 191.454 102.444L190.984 102.585 188.565 94.3414 189.035 94.2005 189.153 94.5763C189.293 95.0695 189.481 95.3982 189.669 95.5626 189.881 95.727 190.045 95.774 190.209 95.727 190.515 95.6331 191.172 95.0695 192.206 94.0361L196.997 89.2685 190.914 87.695C189.411 87.2957 188.471 87.1548 188.049 87.2723 187.814 87.3427 187.673 87.5071 187.579 87.7654 187.462 88.1177 187.485 88.6814 187.673 89.4564L187.203 89.5973 185.677 84.36Z" fill="#00561F" transform="matrix(1.00129 0 0 1 222.375 336)"/><path d="M116.512 114.093C116.066 114.093 115.713 114.445 115.713 114.891L115.713 121.279C115.713 121.726 116.066 122.078 116.512 122.078 116.958 122.078 117.31 121.726 117.31 121.279L117.31 114.891C117.31 114.445 116.958 114.093 116.512 114.093ZM142.416 85.6752C139.058 74.5431 128.724 66.4406 116.512 66.4406 104.299 66.4406 93.9656 74.5431 90.6072 85.6752 72.265 86.7321 57.704 101.927 57.704 120.551 57.704 139.175 72.265 154.37 90.6072 155.427 93.9656 166.559 104.299 174.662 116.512 174.662 128.724 174.662 139.058 166.559 142.416 155.427 160.758 154.37 175.32 139.175 175.32 120.551 175.32 101.927 160.758 86.7321 142.416 85.6752ZM170.435 122.454C170.435 122.829 170.388 123.182 170.364 123.557 170.364 123.722 170.317 123.91 170.294 124.074 170.247 124.403 170.223 124.708 170.176 125.014 170.153 125.201 170.106 125.389 170.082 125.577 170.035 125.882 169.988 126.164 169.918 126.446 169.871 126.634 169.824 126.845 169.8 127.033 169.73 127.315 169.683 127.597 169.613 127.879 169.566 128.067 169.519 128.278 169.448 128.466 169.378 128.724 169.307 129.006 169.213 129.264 169.143 129.452 169.096 129.664 169.025 129.852 168.931 130.11 168.861 130.368 168.767 130.627 168.697 130.814 168.626 131.026 168.556 131.214 168.462 131.472 168.368 131.707 168.25 131.965 168.18 132.153 168.086 132.341 168.016 132.529 167.898 132.764 167.804 133.022 167.687 133.257 167.593 133.445 167.522 133.633 167.428 133.821 167.311 134.055 167.194 134.29 167.076 134.525 166.982 134.713 166.888 134.901 166.794 135.065 166.677 135.3 166.536 135.535 166.395 135.77 166.301 135.958 166.184 136.122 166.09 136.287 165.949 136.521 165.808 136.733 165.643 136.968 165.526 137.132 165.432 137.296 165.315 137.461 165.15 137.696 165.009 137.907 164.822 138.142 164.704 138.306 164.61 138.447 164.493 138.612 164.328 138.846 164.14 139.058 163.953 139.293 163.835 139.434 163.741 139.575 163.624 139.715 163.412 139.974 163.178 140.232 162.943 140.49 162.849 140.584 162.778 140.678 162.708 140.772 162.402 141.125 162.074 141.453 161.745 141.782 161.627 141.9 161.487 142.017 161.369 142.158 161.158 142.369 160.946 142.557 160.735 142.745 160.571 142.886 160.43 143.027 160.265 143.168 160.077 143.332 159.89 143.497 159.678 143.661 159.514 143.802 159.326 143.943 159.161 144.084 158.974 144.225 158.786 144.389 158.574 144.53 158.386 144.671 158.199 144.812 158.011 144.929 157.823 145.07 157.635 145.211 157.424 145.352 157.236 145.493 157.024 145.61 156.836 145.751 156.649 145.869 156.437 146.01 156.249 146.127 156.038 146.244 155.85 146.362 155.639 146.503 155.451 146.62 155.239 146.738 155.028 146.855 154.817 146.972 154.605 147.09 154.394 147.207 154.183 147.301 153.995 147.419 153.783 147.513 153.572 147.63 153.337 147.724 153.126 147.841 152.914 147.935 152.703 148.029 152.492 148.123 152.257 148.217 152.045 148.311 151.811 148.405 151.599 148.499 151.388 148.57 151.176 148.663 150.942 148.757 150.707 148.851 150.472 148.922 150.26 148.992 150.049 149.063 149.838 149.133 149.603 149.204 149.368 149.298 149.11 149.368 148.898 149.438 148.687 149.485 148.452 149.556 148.217 149.626 147.959 149.697 147.701 149.767 147.489 149.814 147.278 149.861 147.043 149.908 146.785 149.955 146.526 150.026 146.268 150.073 146.057 150.12 145.845 150.143 145.634 150.19 145.375 150.237 145.094 150.284 144.835 150.331 144.624 150.354 144.436 150.378 144.225 150.401 142.956 150.566 141.665 150.66 140.35 150.66 139.715 150.66 139.105 150.636 138.494 150.589 138.283 152.233 137.884 153.83 137.32 155.333L137.32 155.333C137.226 155.615 137.109 155.874 136.991 156.155 136.921 156.296 136.874 156.437 136.803 156.578 136.733 156.719 136.662 156.883 136.592 157.024 136.521 157.165 136.451 157.306 136.381 157.471 136.31 157.611 136.24 157.752 136.146 157.917 136.075 158.058 136.005 158.199 135.934 158.339 135.84 158.504 135.746 158.692 135.652 158.856 135.535 159.044 135.418 159.255 135.3 159.443 135.206 159.608 135.112 159.749 134.995 159.913 134.901 160.03 134.83 160.171 134.737 160.289 134.643 160.43 134.549 160.571 134.455 160.688 134.361 160.805 134.267 160.946 134.173 161.064 134.055 161.205 133.962 161.346 133.844 161.487 133.75 161.604 133.68 161.698 133.586 161.815 133.398 162.05 133.21 162.262 132.999 162.473 132.905 162.567 132.811 162.661 132.717 162.778 132.599 162.919 132.458 163.06 132.341 163.178 132.247 163.271 132.13 163.389 132.036 163.483 131.895 163.6 131.777 163.741 131.636 163.859 131.542 163.953 131.449 164.046 131.331 164.14 131.143 164.305 130.955 164.469 130.767 164.634 130.674 164.728 130.58 164.798 130.462 164.892 130.274 165.033 130.086 165.197 129.898 165.338 129.805 165.409 129.687 165.479 129.593 165.573 129.429 165.69 129.264 165.808 129.1 165.925 129.006 165.996 128.889 166.066 128.771 166.137 128.583 166.254 128.395 166.372 128.208 166.489 128.114 166.536 128.043 166.606 127.949 166.653 127.691 166.818 127.409 166.982 127.127 167.123 127.033 167.17 126.963 167.217 126.869 167.264 126.658 167.381 126.47 167.475 126.258 167.569 126.141 167.616 126.047 167.663 125.929 167.734 125.718 167.828 125.53 167.922 125.319 168.016 125.225 168.062 125.107 168.109 125.014 168.156 124.708 168.274 124.426 168.391 124.121 168.509 124.121 168.509 124.074 168.509 124.051 168.532 123.769 168.626 123.463 168.744 123.158 168.838 123.064 168.861 122.947 168.908 122.853 168.931 122.618 169.002 122.407 169.072 122.172 169.119 122.054 169.143 121.96 169.166 121.843 169.213 121.585 169.284 121.35 169.331 121.091 169.378 121.021 169.378 120.951 169.425 120.857 169.425 120.528 169.495 120.199 169.542 119.87 169.589 119.8 169.589 119.706 169.589 119.635 169.613 119.377 169.66 119.119 169.683 118.86 169.706 118.743 169.706 118.625 169.706 118.532 169.73 118.297 169.73 118.038 169.777 117.803 169.777 117.71 169.777 117.592 169.777 117.498 169.777 117.146 169.777 116.817 169.8 116.465 169.8L116.465 169.8C116.112 169.8 115.76 169.8 115.431 169.777 115.314 169.777 115.22 169.777 115.103 169.777 114.868 169.777 114.609 169.753 114.375 169.73 114.257 169.73 114.14 169.73 114.022 169.706 113.764 169.683 113.506 169.636 113.271 169.613 113.177 169.613 113.106 169.613 113.012 169.566 112.684 169.519 112.355 169.448 112.026 169.401 111.932 169.401 111.862 169.354 111.768 169.354 111.533 169.307 111.274 169.26 111.04 169.19 110.922 169.166 110.805 169.143 110.687 169.096 110.476 169.049 110.265 168.978 110.03 168.908 109.912 168.885 109.818 168.838 109.701 168.814 109.419 168.72 109.161 168.626 108.879 168.532 108.808 168.532 108.762 168.485 108.691 168.462 108.409 168.368 108.151 168.25 107.869 168.133 107.752 168.086 107.658 168.039 107.54 167.992 107.352 167.898 107.165 167.828 106.977 167.734 106.859 167.687 106.742 167.616 106.624 167.569 106.436 167.475 106.249 167.381 106.061 167.287 105.967 167.241 105.849 167.17 105.755 167.123 105.497 166.982 105.215 166.818 104.957 166.677 104.863 166.606 104.745 166.536 104.652 166.489 104.487 166.395 104.323 166.278 104.158 166.16 104.041 166.09 103.924 165.996 103.806 165.925 103.665 165.831 103.524 165.714 103.36 165.62 103.242 165.526 103.125 165.456 103.008 165.362 102.843 165.244 102.702 165.103 102.538 164.986 102.373 164.845 102.209 164.728 102.045 164.587 101.904 164.446 101.739 164.328 101.598 164.187 101.481 164.093 101.364 163.976 101.246 163.859 101.129 163.741 101.011 163.647 100.894 163.53 100.776 163.412 100.659 163.295 100.542 163.178 100.424 163.06 100.33 162.943 100.213 162.849 100.095 162.731 99.9779 162.614 99.884 162.496 99.7196 162.309 99.5552 162.121 99.3908 161.933 99.2734 161.768 99.1324 161.627 99.015 161.463 98.9211 161.346 98.8271 161.228 98.7567 161.134 98.6393 160.993 98.5453 160.852 98.4279 160.712 98.3574 160.594 98.2635 160.477 98.193 160.383 98.0991 160.242 97.9817 160.077 97.8877 159.936 97.8173 159.819 97.7468 159.702 97.6763 159.608 97.4885 159.326 97.3241 159.044 97.1597 158.739 97.0892 158.621 97.0422 158.527 96.9718 158.41 96.8778 158.246 96.7839 158.081 96.7134 157.917 96.643 157.799 96.596 157.682 96.5256 157.564 96.4551 157.4 96.3612 157.236 96.2907 157.071 96.2437 156.954 96.1733 156.836 96.1263 156.719 96.0558 156.555 95.9619 156.367 95.8914 156.202 95.8914 156.155 95.8445 156.108 95.821 156.038 95.1399 154.347 94.6467 152.539 94.3884 150.66 93.7777 150.707 93.1671 150.73 92.533 150.73 91.1943 150.73 89.9026 150.636 88.6109 150.472 88.423 150.448 88.2352 150.425 88.0473 150.401 87.7654 150.354 87.4836 150.307 87.2253 150.26 87.0139 150.213 86.826 150.19 86.6147 150.143 86.3563 150.096 86.0745 150.026 85.8162 149.955 85.6048 149.908 85.4169 149.861 85.2055 149.814 84.9472 149.744 84.6889 149.673 84.4305 149.603 84.2191 149.556 84.0312 149.485 83.8199 149.438 83.5615 149.368 83.3267 149.274 83.0683 149.204 82.857 149.133 82.6691 149.063 82.4577 148.992 82.1994 148.898 81.9645 148.804 81.7297 148.71 81.5418 148.64 81.3304 148.546 81.1425 148.476 80.9077 148.382 80.6728 148.264 80.438 148.17 80.2501 148.076 80.0387 148.006 79.8508 147.912 79.616 147.794 79.3811 147.701 79.1463 147.583 78.9584 147.489 78.7705 147.395 78.5826 147.301 78.3477 147.184 78.1364 147.066 77.9015 146.949 77.7136 146.855 77.5257 146.738 77.3379 146.62 77.1265 146.503 76.8916 146.362 76.6803 146.221 76.4924 146.104 76.328 145.986 76.1401 145.869 75.9287 145.728 75.7174 145.587 75.506 145.446 75.3181 145.329 75.1537 145.188 74.9893 145.07 74.7779 144.929 74.5666 144.765 74.3787 144.624 74.2143 144.483 74.0499 144.366 73.8855 144.225 73.6976 144.06 73.4862 143.919 73.2984 143.755 73.134 143.614 72.9696 143.473 72.8052 143.332 72.6173 143.168 72.4294 143.003 72.2415 142.839 72.0771 142.698 71.9362 142.557 71.7953 142.393 71.6074 142.205 71.4195 142.041 71.2551 141.853 71.1377 141.735 71.0203 141.594 70.8793 141.477 70.5271 141.101 70.1748 140.725 69.846 140.326 69.7051 140.162 69.5407 139.997 69.3998 139.809 69.2589 139.622 69.0945 139.434 68.9535 139.246 68.8126 139.058 68.6717 138.893 68.5308 138.706 68.3899 138.518 68.249 138.33 68.1081 138.142 67.9671 137.954 67.8262 137.766 67.7088 137.578 67.5679 137.39 67.4505 137.179 67.333 136.991 67.1921 136.803 67.0747 136.592 66.9573 136.404 66.8398 136.216 66.7224 136.005 66.605 135.793 66.4876 135.582 66.3701 135.394 66.2527 135.183 66.1353 134.971 66.0413 134.783 65.9239 134.572 65.8065 134.361 65.7125 134.149 65.5951 133.938 65.5012 133.727 65.3837 133.515 65.2898 133.304 65.1958 133.093 65.0784 132.858 64.9845 132.646 64.8905 132.435 64.7966 132.224 64.7027 132.012 64.6087 131.777 64.5148 131.566 64.4443 131.331 64.3504 131.12 64.2799 130.885 64.2095 130.674 64.1155 130.439 64.0451 130.204 63.9746 129.969 63.9041 129.758 63.8337 129.523 63.7632 129.311 63.6928 129.077 63.6223 128.842 63.5519 128.583 63.4814 128.372 63.4344 128.137 63.364 127.902 63.2935 127.667 63.2466 127.409 63.1996 127.174 63.1526 126.939 63.1056 126.728 63.0587 126.493 63.0117 126.235 62.9647 125.976 62.9178 125.718 62.8708 125.483 62.8473 125.272 62.8003 125.037 62.7534 124.779 62.7299 124.497 62.7064 124.238 62.6829 124.027 62.6594 123.792 62.6359 123.581 62.6124 123.299 62.589 122.994 62.5655 122.712 62.5655 122.501 62.542 122.313 62.5185 122.101 62.5185 121.726 62.495 121.326 62.495 120.927 62.495 120.81 62.495 120.716 62.495 120.598 62.495 120.481 62.495 120.387 62.495 120.269 62.495 119.87 62.495 119.494 62.5185 119.095 62.5185 118.884 62.542 118.696 62.5655 118.485 62.5655 118.203 62.6124 117.897 62.6359 117.616 62.6359 117.404 62.6829 117.169 62.7064 116.958 62.7299 116.7 62.7768 116.418 62.8003 116.159 62.8238 115.925 62.8708 115.713 62.9178 115.478 62.9647 115.22 63.0117 114.962 63.0587 114.703 63.1056 114.469 63.1526 114.257 63.1996 114.022 63.2466 113.787 63.317 113.529 63.364 113.294 63.4109 113.059 63.4814 112.848 63.5519 112.613 63.6223 112.378 63.6928 112.143 63.7632 111.885 63.8337 111.65 63.9041 111.439 63.9746 111.228 64.0451 110.993 64.139 110.758 64.2095 110.523 64.2799 110.312 64.3739 110.077 64.4443 109.865 64.5383 109.63 64.6087 109.419 64.7027 109.184 64.7966 108.973 64.8905 108.762 64.9845 108.55 65.0784 108.339 65.1724 108.104 65.2898 107.893 65.3837 107.681 65.4777 107.47 65.5951 107.258 65.7125 107.047 65.8065 106.836 65.9239 106.624 66.0413 106.413 66.1353 106.202 66.2527 106.014 66.3701 105.802 66.4876 105.614 66.605 105.403 66.7224 105.192 66.8398 105.004 66.9573 104.792 67.0747 104.605 67.2156 104.393 67.333 104.205 67.4505 104.017 67.5914 103.806 67.7088 103.618 67.8497 103.43 67.9671 103.242 68.1081 103.055 68.249 102.867 68.3899 102.679 68.5308 102.491 68.6717 102.303 68.8126 102.115 68.9535 101.951 69.0945 101.763 69.2354 101.575 69.3998 101.387 69.5407 101.223 69.7051 101.058 69.846 100.87 70.1748 100.471 70.5271 100.095 70.8793 99.7196 70.9968 99.6022 71.1142 99.4612 71.2551 99.3438 71.443 99.1559 71.6309 98.9915 71.7953 98.8036 71.9597 98.6627 72.1006 98.5218 72.2415 98.3574 72.4294 98.193 72.6173 98.0286 72.8052 97.8642 72.9696 97.7233 73.134 97.5824 73.2984 97.4415 73.4862 97.2771 73.6976 97.1362 73.8855 96.9718 74.0499 96.8309 74.2143 96.7134 74.3787 96.5725 74.5666 96.4081 74.7779 96.2672 74.9893 96.1263 75.1537 96.0089 75.3416 95.868 75.506 95.7505 75.7174 95.6096 75.9287 95.4687 76.1401 95.3278 76.328 95.2104 76.4924 95.0929 76.6803 94.9755 76.8916 94.8346 77.103 94.7172 77.3379 94.5763 77.5257 94.4588 77.7136 94.3649 77.9015 94.2475 78.1364 94.13 78.3477 94.0126 78.5826 93.8952 78.7705 93.8012 78.9584 93.7073 79.1463 93.6133 79.3811 93.4959 79.616 93.3785 79.8508 93.2846 80.0387 93.1906 80.2501 93.0967 80.438 93.0262 80.6728 92.9323 80.9077 92.8148 81.1425 92.7209 81.3304 92.6504 81.5418 92.5565 81.7297 92.486 81.9645 92.3921 82.2229 92.2982 82.4577 92.2042 82.6691 92.1338 82.857 92.0633 83.0683 91.9928 83.3267 91.8989 83.5615 91.8284 83.8199 91.758 84.0312 91.6875 84.2191 91.6406 84.4305 91.5936 84.6889 91.5231 84.9472 91.4527 85.2055 91.3822 85.4169 91.3353 85.6048 91.2883 85.8162 91.2413 86.0745 91.1709 86.3563 91.1239 86.6147 91.0534 86.826 91.0065 87.0139 90.983 87.2253 90.936 87.5071 90.889 87.7889 90.8421 88.0473 90.7951 88.2352 90.7716 88.423 90.7481 88.6109 90.7246 89.9026 90.5602 91.1943 90.4663 92.533 90.4663 93.1671 90.4663 93.7777 90.4898 94.3884 90.5367 94.6232 88.7049 95.0929 86.9669 95.7505 85.2995 95.7975 85.182 95.821 85.0881 95.868 84.9707 95.9384 84.8063 96.0089 84.6419 96.0793 84.4775 96.1263 84.36 96.1968 84.2191 96.2437 84.1017 96.3142 83.9373 96.4081 83.7729 96.4786 83.6085 96.549 83.4911 96.596 83.3502 96.6665 83.2327 96.7604 83.0683 96.8309 82.9039 96.9248 82.763 96.9953 82.6456 97.0657 82.5047 97.1362 82.3873 97.3006 82.1289 97.4415 81.8471 97.6059 81.5888 97.6763 81.4713 97.7703 81.3539 97.8407 81.213 97.9347 81.0721 98.0286 80.9312 98.1226 80.7903 98.2165 80.6728 98.287 80.5554 98.3809 80.438 98.4749 80.297 98.5923 80.1561 98.6862 80.0152 98.7802 79.8978 98.8741 79.7804 98.968 79.6395 99.062 79.522 99.1559 79.3811 99.2734 79.2637 99.4612 79.0523 99.6491 78.8175 99.837 78.6061 99.931 78.4887 100.048 78.3712 100.166 78.2773 100.283 78.1599 100.401 78.0424 100.495 77.925 100.612 77.8076 100.706 77.6902 100.823 77.5962 100.941 77.4788 101.058 77.3614 101.199 77.2439 101.317 77.15 101.411 77.0326 101.528 76.9386 101.692 76.7977 101.857 76.6568 102.021 76.5159 102.162 76.3984 102.303 76.281 102.444 76.1636 102.608 76.0227 102.773 75.9053 102.937 75.7643 103.055 75.6704 103.172 75.5999 103.266 75.506 103.407 75.3886 103.571 75.2946 103.712 75.1772 103.83 75.1067 103.947 75.0128 104.064 74.9423 104.229 74.8249 104.417 74.7075 104.581 74.6135 104.675 74.5431 104.769 74.4961 104.886 74.4257 105.145 74.2613 105.427 74.1204 105.685 73.956 105.779 73.909 105.873 73.862 105.967 73.7916 106.155 73.6976 106.343 73.5802 106.53 73.4862 106.648 73.4393 106.765 73.3688 106.883 73.3218 107.071 73.2279 107.258 73.134 107.47 73.0635 107.587 73.0165 107.681 72.9696 107.799 72.9226 108.08 72.8052 108.362 72.6877 108.644 72.5938 108.691 72.5938 108.738 72.5468 108.808 72.5468 109.09 72.4529 109.372 72.3589 109.654 72.265 109.771 72.2415 109.865 72.1945 109.983 72.1711 110.194 72.1006 110.429 72.0536 110.64 71.9832 110.758 71.9597 110.875 71.9127 110.993 71.8892 111.228 71.8188 111.486 71.7718 111.721 71.7248 111.815 71.7248 111.885 71.6779 111.979 71.6779 112.308 71.6074 112.637 71.5604 112.965 71.5135 113.059 71.5135 113.13 71.5135 113.224 71.4665 113.482 71.4195 113.74 71.396 113.999 71.3725 114.116 71.3725 114.234 71.3491 114.328 71.3256 114.562 71.3256 114.821 71.2786 115.056 71.2786 115.173 71.2786 115.267 71.2786 115.384 71.2786 115.737 71.2786 116.066 71.2551 116.418 71.2551L116.418 71.2551C116.77 71.2551 117.122 71.2551 117.451 71.2786 117.545 71.2786 117.663 71.2786 117.756 71.2786 118.015 71.2786 118.25 71.3021 118.485 71.3256 118.602 71.3256 118.696 71.3256 118.813 71.3491 119.072 71.3725 119.33 71.4195 119.588 71.443 119.659 71.443 119.753 71.443 119.823 71.4665 120.152 71.5135 120.481 71.5839 120.81 71.6544 120.88 71.6544 120.951 71.6779 121.044 71.7013 121.303 71.7483 121.538 71.8188 121.796 71.8657 121.913 71.8892 122.007 71.9127 122.125 71.9597 122.36 72.0301 122.571 72.0771 122.806 72.1476 122.9 72.1711 122.994 72.1945 123.111 72.2415 123.416 72.3354 123.722 72.4294 124.004 72.5468 124.004 72.5468 124.027 72.5468 124.051 72.5468 124.356 72.6643 124.661 72.7817 124.967 72.8991 125.06 72.9461 125.154 72.993 125.248 73.0165 125.46 73.1105 125.671 73.2044 125.859 73.2984 125.953 73.3453 126.07 73.3923 126.164 73.4393 126.376 73.5332 126.587 73.6506 126.798 73.7681 126.892 73.815 126.963 73.862 127.057 73.909 127.339 74.0499 127.597 74.2143 127.879 74.3787 127.949 74.4257 128.043 74.4726 128.114 74.5196 128.301 74.637 128.513 74.7545 128.701 74.8954 128.795 74.9658 128.912 75.0363 129.006 75.1067 129.17 75.2242 129.335 75.3416 129.499 75.459 129.593 75.5295 129.687 75.5999 129.805 75.6704 130.016 75.8348 130.204 75.9757 130.415 76.1401 130.486 76.2106 130.58 76.2575 130.65 76.328 130.861 76.4924 131.073 76.6803 131.261 76.8682 131.355 76.9621 131.449 77.0326 131.542 77.1265 131.683 77.2674 131.824 77.3848 131.965 77.5257 132.059 77.6197 132.153 77.7136 132.247 77.8076 132.388 77.9485 132.505 78.0894 132.646 78.2303 132.74 78.3243 132.811 78.4182 132.905 78.5121 133.093 78.747 133.304 78.9584 133.492 79.1932 133.586 79.2872 133.656 79.4046 133.727 79.4985 133.844 79.6395 133.962 79.8039 134.079 79.9448 134.173 80.0622 134.267 80.1796 134.337 80.297 134.431 80.438 134.549 80.5789 134.643 80.7198 134.737 80.8372 134.807 80.9547 134.901 81.0956 135.018 81.26 135.112 81.4244 135.23 81.5888 135.347 81.7532 135.441 81.9176 135.535 82.1054 135.652 82.2933 135.746 82.4812 135.864 82.6691 135.934 82.81 136.005 82.9274 136.075 83.0683 136.146 83.2093 136.24 83.3737 136.31 83.5146 136.381 83.6555 136.451 83.7964 136.521 83.9373 136.592 84.1017 136.662 84.2426 136.733 84.407 136.803 84.5479 136.85 84.6889 136.921 84.8298 137.038 85.0881 137.132 85.3699 137.249 85.6518L137.249 85.6518C137.813 87.1548 138.212 88.7518 138.424 90.3958 139.034 90.3489 139.645 90.3254 140.279 90.3254 141.594 90.3254 142.886 90.4193 144.154 90.5837 144.366 90.6072 144.553 90.6307 144.765 90.6542 145.023 90.7011 145.305 90.7481 145.563 90.7951 145.775 90.8421 145.986 90.8655 146.197 90.9125 146.456 90.9595 146.714 91.0299 146.972 91.0769 147.184 91.1239 147.419 91.1709 147.63 91.2178 147.888 91.2883 148.123 91.3587 148.382 91.4292 148.593 91.4996 148.804 91.5466 149.039 91.6171 149.274 91.6875 149.532 91.758 149.767 91.8519 149.979 91.9224 150.19 91.9928 150.401 92.0633 150.636 92.1572 150.871 92.2277 151.106 92.3216 151.317 92.3921 151.529 92.486 151.74 92.58 151.975 92.6739 152.186 92.7679 152.421 92.8618 152.632 92.9558 152.844 93.0497 153.055 93.1436 153.267 93.2376 153.501 93.355 153.713 93.4724 153.924 93.5664 154.112 93.6838 154.323 93.7777 154.535 93.8952 154.746 94.0126 154.958 94.13 155.169 94.2475 155.357 94.3649 155.568 94.4823 155.78 94.5997 155.967 94.7172 156.179 94.8581 156.39 94.9755 156.578 95.1164 156.766 95.2338 156.954 95.3513 157.165 95.4922 157.353 95.6331 157.541 95.774 157.729 95.9149 157.94 96.0558 158.128 96.1968 158.316 96.3142 158.504 96.4551 158.692 96.596 158.88 96.7604 159.091 96.9013 159.255 97.0422 159.443 97.1832 159.608 97.3241 159.796 97.4885 160.007 97.6529 160.195 97.8407 160.359 97.9817 160.524 98.1226 160.665 98.2635 160.876 98.4514 161.087 98.6627 161.299 98.8506 161.416 98.968 161.557 99.0855 161.674 99.2264 162.003 99.5552 162.332 99.884 162.637 100.236 162.731 100.33 162.802 100.424 162.872 100.518 163.107 100.776 163.318 101.035 163.553 101.293 163.671 101.434 163.788 101.575 163.882 101.716 164.07 101.951 164.234 102.162 164.422 102.397 164.54 102.561 164.657 102.702 164.751 102.867 164.915 103.102 165.08 103.313 165.244 103.548 165.362 103.712 165.456 103.877 165.573 104.041 165.714 104.276 165.878 104.487 166.019 104.722 166.137 104.886 166.231 105.074 166.325 105.239 166.465 105.474 166.606 105.708 166.724 105.943 166.818 106.131 166.912 106.296 167.006 106.483 167.123 106.718 167.241 106.953 167.358 107.188 167.452 107.376 167.546 107.564 167.616 107.752 167.734 107.986 167.851 108.245 167.945 108.48 168.039 108.668 168.109 108.855 168.18 109.043 168.274 109.302 168.391 109.537 168.485 109.795 168.556 109.983 168.626 110.194 168.697 110.382 168.791 110.64 168.885 110.899 168.955 111.157 169.025 111.345 169.072 111.556 169.143 111.744 169.213 112.003 169.307 112.284 169.378 112.543 169.425 112.731 169.495 112.942 169.542 113.13 169.613 113.412 169.683 113.693 169.73 113.975 169.777 114.163 169.824 114.351 169.847 114.562 169.894 114.844 169.941 115.15 170.012 115.431 170.035 115.619 170.082 115.807 170.106 115.995 170.153 116.3 170.2 116.629 170.223 116.958 170.223 117.122 170.27 117.287 170.294 117.475 170.317 117.85 170.341 118.203 170.364 118.578 170.364 118.696 170.364 118.837 170.388 118.954 170.411 119.447 170.435 119.964 170.435 120.457 170.435 120.951 170.435 121.467 170.388 121.96 170.388 122.078 170.388 122.219 170.364 122.336ZM116.512 105.99C117.475 105.99 118.273 105.192 118.273 104.229 118.273 103.266 117.475 102.467 116.512 102.467 115.549 102.467 114.75 103.266 114.75 104.229 114.75 105.192 115.525 105.99 116.512 105.99ZM123.675 99.884 119.4 99.884 119.4 109.607 117.944 109.607C117.545 109.302 117.028 109.114 116.465 109.114 115.901 109.114 115.408 109.302 114.985 109.607L113.6 109.607 113.6 99.884 109.349 99.884 109.349 129.546 107.611 129.546 107.611 133.891 125.413 133.891 125.413 129.546 123.675 129.546 123.675 99.884ZM119.4 129.546 113.6 129.546 113.6 126.775 119.4 126.775 119.4 129.546ZM119.4 124.873 113.6 124.873 113.6 111.392 115.244 111.392C115.314 110.758 115.831 110.288 116.488 110.288 117.146 110.288 117.663 110.781 117.71 111.392L119.4 111.392 119.4 124.873ZM123.628 93.6838 120.082 93.6838 120.082 90.8655 119.095 90.8655 119.095 89.0806 120.035 89.0806 120.035 87.4601 119.095 87.4601 119.095 87.2018C119.095 85.8866 118.132 84.8298 116.888 84.6419L116.888 80.1326 116.112 80.1326 116.112 84.6419C114.868 84.8298 113.905 85.9101 113.905 87.2018L113.905 87.4601 112.965 87.4601 112.965 89.0806 113.905 89.0806 113.905 90.8655 112.918 90.8655 112.918 93.6838 109.372 93.6838 109.372 96.3142 107.634 96.3142 107.634 98.0286 125.366 98.0286 125.366 96.3142 123.628 96.3142 123.628 93.6838ZM115.69 93.6838 114.68 93.6838 114.68 90.8655 115.69 90.8655 115.69 93.6838ZM118.32 93.6838 117.31 93.6838 117.31 90.8655 118.32 90.8655 118.32 93.6838ZM140.397 93.0262 136.451 93.0262C136.193 82.2464 127.362 73.5802 116.512 73.5802 105.661 73.5802 96.8544 82.2464 96.5725 93.0262L92.627 93.0262C77.4083 93.0262 65.0549 105.356 65.0549 120.598 65.0549 135.84 77.4083 148.17 92.627 148.17L96.5725 148.17C96.8544 158.95 105.661 167.616 116.512 167.616 127.362 167.616 136.169 158.95 136.451 148.17L140.397 148.17C155.615 148.17 167.969 135.84 167.969 120.598 167.969 105.356 155.615 93.0262 140.397 93.0262ZM92.8383 129.476C91.2413 128.09 89.2685 127.104 87.0844 126.728L98.1695 126.728C95.9854 126.728 94.0361 127.808 92.8383 129.476ZM94.177 130.838C95.0225 129.499 96.5021 128.607 98.193 128.607 100.823 128.607 102.937 130.72 102.937 133.351L102.937 133.351 102.937 138.729 96.9483 138.729C96.9483 138.729 96.9483 138.565 96.9483 138.471 96.9483 135.559 95.8914 132.905 94.177 130.838ZM102.937 140.584 102.937 151.975 100.377 151.975 100.377 144.624 100.377 144.624C100.377 143.074 99.8135 141.665 98.8741 140.584L102.914 140.584ZM116.535 165.808C108.668 165.808 101.998 160.829 99.4612 153.83L133.609 153.83C131.073 160.805 124.403 165.808 116.535 165.808ZM111.791 151.975 111.791 142.581C112.19 140.185 114.234 138.377 116.676 138.377 118.907 138.377 120.81 139.927 121.397 142.041L121.397 151.975 111.791 151.975ZM132.67 144.624 132.67 144.624 132.67 151.975 130.039 151.975 130.039 140.584 134.149 140.584C133.21 141.665 132.67 143.074 132.67 144.624ZM136.099 138.471C136.099 138.471 136.099 138.635 136.099 138.729L130.039 138.729 130.039 133.351 130.039 133.351C130.039 130.72 132.153 128.607 134.783 128.607 136.498 128.607 138.001 129.523 138.823 130.885 137.109 132.952 136.099 135.582 136.099 138.471ZM140.162 129.523C138.964 127.855 137.015 126.751 134.807 126.751L145.963 126.751C143.755 127.127 141.782 128.114 140.162 129.523ZM161.44 111.063C155.051 111.063 149.673 115.408 148.123 121.303L124.332 121.303 124.332 123.158 147.771 123.158C147.701 123.698 147.677 124.262 147.677 124.826 147.677 124.826 147.677 124.826 147.677 124.849L124.332 124.849 124.332 126.704 134.783 126.704C131.143 126.704 128.184 129.664 128.184 133.304L128.184 133.304 128.184 151.928 125.601 151.928 125.601 135.84 127.198 135.84 127.198 134.596 121.397 134.596 121.397 139.034C120.598 138.118 119.541 137.437 118.344 137.085L118.344 135.676 119.025 135.676 119.025 134.572 114.069 134.572 114.069 135.676 114.75 135.676 114.75 137.156C113.6 137.531 112.59 138.236 111.815 139.175L111.815 134.619 105.896 134.619 105.896 135.84 107.493 135.84 107.493 151.928 104.816 151.928 104.816 133.304 104.816 133.304C104.816 129.664 101.857 126.704 98.2165 126.704L108.738 126.704 108.738 124.849 85.4169 124.849C85.4169 124.262 85.3699 123.698 85.323 123.135L108.762 123.135 108.762 121.279 84.9707 121.279C83.3971 115.384 78.0424 111.04 71.6544 111.04 70.715 111.04 69.7755 111.134 68.8831 111.321 72.5938 101.786 81.8471 95.046 92.6739 95.046L98.4044 95.046 98.4044 93.5194 98.4044 93.5194C98.4044 83.4911 106.53 75.3651 116.582 75.3651 126.634 75.3651 134.76 83.4911 134.76 93.5194L134.76 95.046 140.49 95.046C151.317 95.046 160.571 101.81 164.281 111.321 163.389 111.134 162.449 111.04 161.51 111.04ZM114.915 156.343 111.65 156.343 110.875 158.715 113.506 158.715 113.388 159.655 110.523 159.655 110.171 160.735 114.562 160.735 114.891 156.343ZM113.647 157.893 112.167 157.893 112.378 157.095 113.811 157.095C113.811 157.095 113.67 157.893 113.67 157.893ZM124.356 159.561 124.896 160.735 126.517 160.665 125.882 159.655 126.634 159.608 126 158.527 125.084 158.527 123.98 156.343 122.853 156.343 121.702 158.41 122.125 159.584 124.332 159.584ZM123.416 157.494 123.863 158.48 122.923 158.48 123.416 157.494ZM109.865 156.32 108.597 156.32 106.601 160.712 108.362 160.712 109.865 156.32ZM116.3 160.712 120.763 160.712 120.481 159.584 118.719 159.584 120.105 158.339 119.635 156.32 116.324 156.32 116.324 158.011C116.324 158.011 117.569 158.011 117.569 158.011L117.451 157.33 118.649 157.33 118.719 158.081 116.324 159.537 116.277 160.712Z" fill="#00561F" transform="matrix(1.00129 0 0 1 222.375 336)"/></g></g></g></g></svg>